<svg width="80" height="109" viewBox="0 0 80 109" fill="none" xmlns="http://www.w3.org/2000/svg">
<path d="M73.6986 25.9805C79.2425 56.8025 54.1952 88.3481 52.9784 89.8442L52.902 89.9325L44.3167 91.465C44.3167 91.465 32.3805 84.461 21.1635 72.5186C12.9038 63.675 5.03609 52.2355 2.65743 38.8252C-3.02847 7.18522 32.8859 3.34323 32.8859 3.34323C32.8859 3.34323 56.2274 -2.57018 67.9241 12.5675C70.6403 15.7665 72.6161 20.1786 73.6986 25.9805Z" fill="#EB5017"/>
<path d="M45.9467 91.0985C45.9467 91.0985 16.5617 73.0174 7.41058 42.7049C-1.65812 12.3865 32.9565 3.1725 32.9565 3.1725C32.9565 3.1725 7.7066 13.6135 15.0717 40.9909C22.4427 68.4507 47.8237 90.7142 47.8237 90.7142L45.9467 91.0985Z" fill="#FBF497"/>
<path d="M51.672 90.1043C51.672 90.1043 72.9804 62.9704 70.9375 31.3152C68.983 -0.263522 33.2035 3.1546 33.2035 3.1546C33.2035 3.1546 60.5241 4.15852 63.1464 32.3761C65.7746 60.6761 49.7066 90.4123 49.7066 90.4123L51.672 90.1043Z" fill="#FBF497"/>
<path d="M47.8298 90.7966C47.8298 90.7966 37.18 62.6631 33.5892 37.0831C30.0867 11.5795 32.9566 3.17249 32.9566 3.17249C32.9566 3.17249 39.4633 12.9712 43.6287 36.1907C47.7941 59.4102 49.7069 90.4123 49.7069 90.4123L47.8298 90.7966Z" fill="#FBF497"/>
<path d="M44.3964 94.8548L47.7902 105.127L54.822 103.873L54.2472 93.6448L44.3964 94.8548Z" fill="#9B0C01"/>
<path d="M44.3932 91.3766L47.3837 98.3655L47.9604 98.3238L45.2935 91.2286L44.3932 91.3766Z" fill="#9B0C01"/>
<path d="M52.8959 89.8501L52.9621 97.6304L52.303 97.6782L51.9191 90.0865L52.8959 89.8501Z" fill="#9B0C01"/>
<path opacity="0.5" d="M73.6986 25.9805C79.2424 56.8025 54.1951 88.3481 52.9783 89.8442L52.8195 89.9385L44.3167 91.465C44.3167 91.465 32.3804 84.461 21.1634 72.5186C21.1634 72.5186 41.4435 65.5017 56.7886 42.9404C69.0658 24.9079 68.6331 15.4977 67.9181 12.4851C70.6402 15.7665 72.616 20.1786 73.6986 25.9805Z" fill="#DA2408"/>
</svg>
