<svg width="45" height="61" viewBox="0 0 45 61" fill="none" xmlns="http://www.w3.org/2000/svg">
<g opacity="0.7">
<path opacity="0.7" d="M42.5001 11.5951C49.1001 29.0951 37.8001 50.3951 37.3001 51.3951L32.4001 53.1952C32.4001 53.1952 24.6001 50.3951 16.7001 44.5951C10.9001 40.2951 5.00009 34.3951 2.10009 26.7951C-4.69991 8.79514 16.0001 2.59513 16.0001 2.59513C16.0001 2.59513 29.1001 -3.40487 37.6001 4.19513C39.6001 5.89513 41.2001 8.29513 42.5001 11.5951Z" fill="#EB5017"/>
<path opacity="0.7" d="M33.3002 52.9951C33.3002 52.9951 14.0002 45.5951 5.30019 28.6951C-3.39981 11.7951 16.0002 2.59509 16.0002 2.59509C16.0002 2.59509 2.30019 11.4951 9.60019 26.7951C16.9002 42.0951 34.3002 52.4951 34.3002 52.4951L33.3002 52.9951Z" fill="#FBF497"/>
<path opacity="0.7" d="M36.6002 51.6951C36.6002 51.6951 46.1002 33.3951 41.5002 14.9951C36.9002 -3.40486 16.2002 2.59511 16.2002 2.59511C16.2002 2.59511 32.4002 0.195137 37.0002 16.4951C41.6002 32.8951 35.4002 52.0951 35.4002 52.0951L36.6002 51.6951Z" fill="#FBF497"/>
<path opacity="0.7" d="M34.4 52.5951C34.4 52.5951 25 37.1951 20.2 22.5951C15.3 7.99512 16.1 2.69513 16.1 2.69513C16.1 2.69513 21 7.79515 26 20.9951C31 34.1951 35.5 52.1952 35.5 52.1952L34.4 52.5951Z" fill="#FBF497"/>
<path opacity="0.7" d="M32.8 55.2951L35.9 60.9951L39.9 59.4951L38.4 53.4951L32.8 55.2951Z" fill="#9B0C01"/>
<path opacity="0.7" d="M32.4001 53.2951L34.9001 57.0951L35.3001 56.8951L32.9001 53.0951L32.4001 53.2951Z" fill="#9B0C01"/>
<path opacity="0.7" d="M37.3002 51.4951L38.1002 55.9951L37.8002 56.0951L36.7002 51.6951L37.3002 51.4951Z" fill="#9B0C01"/>
<path opacity="0.5" d="M42.5002 11.5951C49.1002 29.0951 37.8002 50.3951 37.3002 51.3951L37.2002 51.4951L32.4002 53.2951C32.4002 53.2951 24.6002 50.4952 16.7002 44.6952C16.7002 44.6952 27.8002 38.3951 34.4002 23.3951C39.7002 11.3951 38.4002 5.89513 37.6002 4.19513C39.6002 5.89513 41.2002 8.29512 42.5002 11.5951Z" fill="#DA2408"/>
</g>
</svg>
