<svg width="1389" height="281" viewBox="0 0 1389 281" fill="none" xmlns="http://www.w3.org/2000/svg">
<path opacity="0.5" d="M602.263 151.853C602.301 152.481 563.414 146.042 516.97 148.263C470.476 150.239 437.269 159.452 437.007 158.783C436.509 158.491 469.517 148.402 516.63 146.374C563.749 144.138 602.723 151.483 602.263 151.853Z" fill="#501E07"/>
<g opacity="0.3">
<path opacity="0.3" d="M483.5 58.5952C487.9 84.8952 491.9 111.195 495.5 137.495C495.7 137.395 495.9 137.395 496.1 137.295C492.7 110.995 489 84.7952 484.9 58.5952C484.5 58.5952 484 58.5952 483.5 58.5952Z" fill="#760620"/>
<g opacity="0.3">
<path opacity="0.3" d="M499.1 99.3952C504.6 98.4952 502.6 107.695 503.8 108.095C505 108.395 511.4 108.795 513.1 109.895C514.8 110.995 516 115.295 515.6 116.195C515.2 117.095 512.9 116.795 512.1 116.595C511.3 116.395 511.2 112.795 510.4 112.295C509.6 111.795 500.3 111.695 499.2 111.295C498.1 110.795 495.3 99.9952 499.1 99.3952Z" fill="#DA6980"/>
<path opacity="0.3" d="M515.5 114.095C514.1 114.295 512.7 114.395 511.2 114.595C511.2 114.595 510.8 117.095 511.3 117.295C511.7 117.495 516 118.195 516.5 117.995C517.1 117.695 515.5 114.095 515.5 114.095Z" fill="#BF3D36"/>
<path opacity="0.3" d="M482.9 101.895C489.5 100.295 489.7 105.695 490 108.995C490.3 112.195 482.8 114.195 483.7 114.995C484.6 115.795 490 117.795 489.9 119.995C489.8 122.195 489.3 123.595 488.7 123.595C488 123.595 484.9 122.195 484.5 121.795C484.1 121.395 485.9 119.695 485.7 119.195C485.5 118.695 478.9 116.695 478.1 115.995C477.3 115.295 480.5 111.695 480 110.195C479.6 108.695 480.2 102.495 482.9 101.895Z" fill="#DA6980"/>
<path opacity="0.3" d="M489.7 122.095C488.1 121.595 486.5 121.195 484.8 120.695C484.8 120.695 483.2 122.695 483.4 122.895C483.6 123.095 488.2 126.595 488.7 126.595C489.2 126.595 489.7 122.095 489.7 122.095Z" fill="#BF3D36"/>
<path opacity="0.3" d="M476.1 102.495C476.1 102.495 472.5 101.695 468.1 104.795C463.7 107.895 462.5 112.195 462.5 112.195C464.2 113.295 465.8 114.495 467.4 115.595C467.4 115.595 467.1 114.595 468.3 112.095C469.4 109.695 470.8 108.495 470.8 108.495C470.8 108.495 469.1 111.295 468.7 112.895C468.3 114.495 468.5 116.195 468.5 116.195C469.2 116.095 469.9 116.095 470.7 115.995C470.7 115.995 469.9 113.195 471.8 109.895C473.7 106.595 475.5 104.895 475.5 104.895C475.6 103.995 475.8 103.295 476.1 102.495Z" fill="#EB5017"/>
<path opacity="0.3" d="M512.8 88.9952C512.8 88.9952 515.4 88.5952 516.9 88.4952C518.4 88.3952 519 88.6952 519 88.6952C518.9 88.0952 518.7 87.4952 518.6 86.7952C517.5 86.7952 516.3 86.7952 515.2 86.7952C516.1 85.7952 516.9 84.6952 517.8 83.6952C517.9 83.6952 507.5 72.6952 497.7 79.6952C490.1 85.1952 492 90.9952 491.7 94.9952C491.5 97.9952 490.6 99.5951 490.6 99.5951C490.4 99.7951 490.2 99.9952 490 100.295C491.3 100.695 492.7 101.095 494 101.495C494 101.495 498.2 97.1951 498.5 96.8951C498.8 96.4951 502.4 88.4951 502.4 88.5951C504.4 88.1951 506.5 87.7951 508.5 87.3951C510 87.8951 511.4 88.4952 512.8 88.9952Z" fill="#EB5017"/>
<path opacity="0.3" d="M507.8 83.0952C512.1 84.1952 513.3 88.5952 512.5 90.1952C511.8 91.7952 511.2 93.1952 512 94.9952C512.8 96.7952 513.7 96.6951 513.7 97.3951C513.7 98.1951 512.5 99.3952 511 99.6952C509.5 99.9952 509.1 99.0952 509.1 99.0952C509.1 99.0952 508.2 99.7952 507.3 99.5952C506.3 99.3952 506.7 97.5952 505.9 96.2952C505.1 94.9952 504.1 95.0952 503 94.5952C502 94.0952 502.3 93.6952 502.3 93.6952C502.3 93.6952 504 98.1952 505.4 102.495C506.8 106.795 505.6 108.895 502.6 110.895C499.6 112.995 494.4 110.795 489.3 110.295C485.4 109.895 480.8 114.195 479 113.295C473.8 110.595 474.4 102.895 477 101.495C481.8 98.7952 491.9 101.395 494.7 98.7952C497.5 96.1952 495.3 79.9952 507.8 83.0952Z" fill="#E48795"/>
<path opacity="0.3" d="M506.2 85.5952C506.2 85.5952 506.5 82.5952 505.8 81.1952C505.1 79.6952 502 78.6952 501.5 78.6952C501 78.6952 501.9 82.9952 502.9 83.9952C503.8 84.8952 506.2 85.5952 506.2 85.5952Z" fill="#E48795"/>
<path opacity="0.3" d="M479.9 102.395C486.5 100.795 486.7 106.195 487.1 109.395C487.5 112.595 479.9 114.595 480.8 115.395C481.7 116.195 487.1 118.195 487.1 120.395C487 122.595 486.6 123.995 485.9 123.995C485.2 123.995 482.1 122.595 481.7 122.195C481.3 121.795 483.1 120.095 482.9 119.595C482.7 119.095 476.1 117.095 475.3 116.395C474.5 115.695 477.7 112.095 477.2 110.595C476.6 109.295 477.2 103.095 479.9 102.395Z" fill="#E48795"/>
<path opacity="0.3" d="M499.2 101.295C504.7 100.395 502.7 109.595 503.9 109.995C505.1 110.295 511.5 110.695 513.1 111.795C514.8 112.895 516 117.195 515.6 118.095C515.2 118.995 512.9 118.695 512.1 118.495C511.3 118.295 511.2 114.695 510.4 114.195C509.6 113.695 500.3 113.595 499.2 113.195C498.2 112.695 495.4 101.895 499.2 101.295Z" fill="#E48795"/>
<path opacity="0.3" d="M486.8 122.595C485.2 122.095 483.6 121.695 481.9 121.195C481.9 121.195 480.3 123.195 480.5 123.395C480.7 123.595 485.3 127.095 485.8 127.095C486.3 127.095 486.8 122.595 486.8 122.595Z" fill="#EB5017"/>
<path opacity="0.3" d="M515.6 115.995C514.2 116.195 512.8 116.295 511.4 116.495C511.4 116.495 511 118.995 511.5 119.195C511.9 119.395 516.2 120.095 516.7 119.895C517.1 119.695 515.6 115.995 515.6 115.995Z" fill="#EB5017"/>
<path opacity="0.3" d="M493 99.5952C493 99.5952 492.5 102.695 491.6 103.495C490.8 104.295 482.9 104.395 482 104.095C481.1 103.895 482.5 100.195 482.5 100.195C486 99.9953 489.5 99.7952 493 99.5952Z" fill="#FBF497"/>
</g>
</g>
<g opacity="0.3">
<path opacity="0.3" d="M544 55.4952C542.9 81.7952 541.9 108.095 540.8 134.395C541 134.395 541.1 134.395 541.3 134.395C542.7 108.195 544.1 81.8952 545.6 55.6952C545.1 55.5952 544.6 55.4952 544 55.4952Z" fill="#760620"/>
<g opacity="0.3">
<path opacity="0.3" d="M554.1 84.3952C559.8 84.0952 556.9 92.9953 558.1 93.4953C559.3 93.9953 565.8 94.8953 567.4 96.1953C569 97.4953 569.9 101.895 569.4 102.695C568.9 103.495 566.6 102.995 565.8 102.695C565 102.395 565.3 98.7953 564.5 98.2953C563.7 97.6953 554.2 96.7953 553.1 96.2953C552 95.6953 550.2 84.6952 554.1 84.3952Z" fill="#DA6980"/>
<path opacity="0.3" d="M569.6 100.595C568.1 100.595 566.7 100.695 565.2 100.695C565.2 100.695 564.6 103.195 565 103.395C565.4 103.595 569.7 104.695 570.3 104.595C570.8 104.395 569.6 100.595 569.6 100.595Z" fill="#BF3D36"/>
<path opacity="0.3" d="M537.3 85.3951C544.2 84.3951 543.9 89.8951 543.9 93.0951C544 96.2951 536 97.5952 536.9 98.4952C537.8 99.3952 543.1 101.895 542.8 104.095C542.5 106.295 541.9 107.595 541.2 107.495C540.5 107.395 537.4 105.695 537 105.295C536.6 104.895 538.6 103.295 538.5 102.795C538.4 102.295 531.8 99.6951 531.1 98.8951C530.3 98.0951 534 94.7952 533.6 93.2952C533.3 91.8952 534.5 85.7951 537.3 85.3951Z" fill="#DA6980"/>
<path opacity="0.3" d="M542.4 106.095C540.8 105.495 539.2 104.895 537.6 104.195C537.6 104.195 535.7 105.995 535.9 106.295C536.1 106.595 540.5 110.495 540.9 110.495C541.4 110.495 542.4 106.095 542.4 106.095Z" fill="#BF3D36"/>
<path opacity="0.3" d="M530.3 85.2953C530.3 85.2953 526.7 84.0953 521.9 86.7953C517.1 89.4953 515.5 93.6953 515.5 93.6953C517.1 94.9953 518.7 96.1953 520.2 97.4953C520.2 97.4953 520 96.4953 521.4 94.0953C522.8 91.7953 524.3 90.6953 524.3 90.6953C524.3 90.6953 522.3 93.3953 521.8 94.8953C521.3 96.3953 521.3 98.0953 521.3 98.0953C522 98.0953 522.8 98.0953 523.5 98.0953C523.5 98.0953 522.9 95.1953 525.2 92.0953C527.5 88.9953 529.4 87.4953 529.4 87.4953C529.6 86.8953 530 86.0953 530.3 85.2953Z" fill="#EB5017"/>
<path opacity="0.3" d="M569.1 75.3952C569.1 75.3952 571.8 75.2952 573.4 75.2952C574.9 75.3952 575.5 75.6952 575.5 75.6952C575.4 75.0952 575.3 74.3952 575.3 73.7952C574.1 73.6952 573 73.5952 571.8 73.4952C572.8 72.4952 573.8 71.5952 574.8 70.6952C574.9 70.6952 565.2 58.7952 554.6 64.7952C546.3 69.5952 547.8 75.4952 547.1 79.4952C546.6 82.4952 545.5 83.9952 545.5 83.9952C545.3 84.1952 545 84.3952 544.8 84.5952C546.1 85.0952 547.5 85.5952 548.8 86.1952C548.8 86.1952 553.5 82.3952 553.9 81.9952C554.2 81.6952 558.7 74.0952 558.7 74.0952C560.8 73.8952 562.9 73.6952 565.1 73.4952C566.3 73.9952 567.7 74.6952 569.1 75.3952Z" fill="#EB5017"/>
<path opacity="0.3" d="M564.6 69.0952C568.9 70.5952 569.7 75.0952 568.8 76.5952C567.9 78.0952 567.2 79.4952 567.9 81.3952C568.6 83.2952 569.5 83.1953 569.5 83.9953C569.4 84.7953 568.1 85.8953 566.5 85.9953C564.9 86.0953 564.6 85.1953 564.6 85.1953C564.6 85.1953 563.6 85.7953 562.7 85.4953C561.7 85.1953 562.3 83.3952 561.6 82.0952C560.9 80.7952 559.9 80.7952 558.8 80.0952C557.8 79.4952 558.2 79.0952 558.2 79.0952C558.2 79.0952 559.5 83.6952 560.6 88.0952C561.7 92.4952 560.2 94.4953 557 96.1953C553.8 97.9953 548.6 95.2953 543.4 94.2953C539.4 93.5953 534.3 97.3953 532.5 96.2953C527.5 93.0953 528.8 85.4953 531.6 84.2953C536.8 82.0953 546.9 85.4953 549.9 83.1953C552.8 81.0953 552.1 64.7952 564.6 69.0952Z" fill="#E48795"/>
<path opacity="0.3" d="M562.7 71.2952C562.7 71.2952 563.3 68.3952 562.7 66.8952C562.1 65.3952 559.1 63.9952 558.5 63.9952C558 63.9952 558.5 68.2952 559.4 69.3952C560.3 70.3952 562.7 71.2952 562.7 71.2952Z" fill="#E48795"/>
<path opacity="0.3" d="M534.2 85.6953C541.1 84.6953 540.8 90.0953 540.9 93.3953C541 96.5953 533 97.8953 533.9 98.7953C534.8 99.6953 540.1 102.095 539.8 104.395C539.5 106.595 538.9 107.895 538.2 107.795C537.5 107.695 534.4 106.095 534 105.595C533.6 105.195 535.6 103.595 535.4 103.095C535.3 102.595 528.7 99.9953 527.9 99.1953C527.1 98.3953 530.7 95.0953 530.4 93.5953C530.2 92.1953 531.4 86.0953 534.2 85.6953Z" fill="#E48795"/>
<path opacity="0.3" d="M554 86.3953C559.7 85.9953 556.8 94.9953 558 95.4953C559.2 95.9953 565.7 96.8953 567.3 98.1953C568.9 99.4953 569.8 103.895 569.3 104.695C568.8 105.495 566.5 104.995 565.7 104.695C564.9 104.395 565.2 100.795 564.4 100.295C563.6 99.6953 554.1 98.7953 553.1 98.2953C551.9 97.5953 550.1 86.5953 554 86.3953Z" fill="#E48795"/>
<path opacity="0.3" d="M539.4 106.395C537.8 105.795 536.2 105.195 534.6 104.595C534.6 104.595 532.7 106.395 532.9 106.695C533.1 106.995 537.5 110.795 538 110.895C538.4 110.795 539.4 106.395 539.4 106.395Z" fill="#EB5017"/>
<path opacity="0.3" d="M569.4 102.595C567.9 102.595 566.5 102.695 565 102.695C565 102.695 564.4 105.195 564.8 105.395C565.2 105.595 569.5 106.695 570.1 106.595C570.7 106.295 569.4 102.595 569.4 102.595Z" fill="#EB5017"/>
<path opacity="0.3" d="M547.9 84.0952C547.9 84.0952 547.1 87.0952 546.1 87.7952C545.2 88.4952 537.1 87.7952 536.2 87.4952C535.3 87.1952 537 83.5952 537 83.5952C540.6 83.7952 544.2 83.8952 547.9 84.0952Z" fill="#FBF497"/>
</g>
</g>
<path d="M580.3 56.3951C575.2 81.7951 570.4 107.295 566 132.795C566.2 132.795 566.4 132.795 566.6 132.695C571.5 107.195 576.8 81.7952 582.4 56.4952C581.7 56.4952 581 56.4951 580.3 56.3951Z" fill="#760620"/>
<path d="M460 61.1952C466.1 87.2952 471.8 113.395 477 139.595C477.2 139.495 477.4 139.495 477.6 139.395C472.9 113.295 467.9 87.2952 462.4 61.2952C461.5 61.3952 460.8 61.2952 460 61.1952Z" fill="#760620"/>
<path d="M494.3 55.9952C501.2 86.1952 507.3 116.495 512.6 146.895C515.7 146.795 518.8 146.595 521.9 146.595C524.1 115.895 526.7 85.2952 529.5 54.5952C517.7 54.6952 506 55.1952 494.3 55.9952Z" fill="#3E6C6E"/>
<path d="M437.2 65.3951C435.7 62.5951 434.1 59.6951 432.5 56.8951C485 47.8951 538.6 45.5952 592.1 49.9952C590.8 52.5952 589.5 55.0952 588.2 57.6952C537.5 54.0952 486.8 56.7951 437.2 65.3951Z" fill="#BF3D36"/>
<path d="M436.1 56.4952C459.9 43.7952 484.9 32.4952 511.1 22.6952C537.5 30.0952 562.9 39.1952 587.4 49.5952C536.7 45.8952 485.9 48.1952 436.1 56.4952Z" fill="#3E6C6E"/>
<path d="M453.9 53.6952C472.1 42.4952 491.1 32.1952 511.1 22.6952C498.7 30.8952 486.8 39.4951 475.3 48.3951C468.1 49.9951 461 51.7952 453.9 53.6952Z" fill="#8FD8DC"/>
<path d="M505 46.7952C507 38.7952 509 30.6952 511.1 22.6952C514.2 30.5952 517.1 38.4952 520 46.4952C515 46.4952 510 46.5952 505 46.7952Z" fill="#8FD8DC"/>
<path d="M549.2 48.0952C537 39.2952 524.3 30.7952 511.1 22.6952C531 30.3952 550.1 39.0952 568.5 48.4952C562.1 48.1952 555.6 48.0952 549.2 48.0952Z" fill="#8FD8DC"/>
<path d="M456.1 141.395C458.1 144.795 460 148.195 461.9 151.595C497.7 146.495 534 145.095 570.3 147.295C572.6 142.495 575 137.795 577.4 133.095C536.5 131.395 495.8 134.195 456.1 141.395Z" fill="#BF3D36"/>
<path d="M508.4 123.695C513.4 124.095 518.4 124.495 523.5 124.995C523.4 125.695 523.4 126.495 523.3 127.195C518.6 127.695 514 128.195 509.4 128.795C509 126.995 508.7 125.395 508.4 123.695Z" fill="#FBF497"/>
<path d="M509.7 130.695C514.2 130.295 518.6 129.995 523.1 129.795C523.1 130.295 523 130.695 523 131.195C518.7 131.495 514.3 131.895 510 132.295C509.9 131.795 509.8 131.295 509.7 130.695Z" fill="#FBF497"/>
<path d="M495.2 60.0952C506.4 59.8952 517.7 59.9952 528.9 60.3952C528.8 61.0952 528.8 61.7952 528.7 62.4952C517.7 61.9952 506.7 61.7952 495.6 61.8952C495.5 61.3952 495.4 60.7952 495.2 60.0952Z" fill="#FBF497"/>
<path d="M496.3 64.6952C507.1 64.3952 517.8 64.2952 528.6 64.5952C528.5 65.7952 528.4 67.0952 528.3 68.2952C518.1 68.8952 507.9 69.6952 497.7 70.7952C497.2 68.7952 496.7 66.7952 496.3 64.6952Z" fill="#FBF497"/>
<path opacity="0.3" d="M495.9 63.0952C495.9 62.9952 513.5 64.6952 519.5 75.5952C525.5 86.3952 520.2 133.795 520.3 133.795C521.1 133.795 521.9 133.795 522.7 133.695C524.6 107.895 526.8 82.0951 529.2 56.3951C517.7 56.6951 506.2 57.2952 494.7 58.1952C495.1 59.7952 495.5 61.3952 495.9 63.0952Z" fill="#13223D"/>
<path d="M510.1 22.9952C509.7 15.9952 509.3 8.99518 508.9 1.99518C509.9 8.99518 510.9 15.9952 511.8 22.9952C511.2 22.8952 510.7 22.8952 510.1 22.9952Z" fill="#760620"/>
<path d="M509 2.89512C509 2.89512 515.1 -2.50488 523.2 1.89512C532 6.79512 535.2 3.29515 535.2 3.29515C535.3 5.89515 535.3 8.49513 535.4 11.0951C535.4 11.0951 531.8 13.8952 526.5 12.4952C520.2 10.7952 519.1 7.09516 514.8 7.49516C510.5 7.89516 510.2 11.6952 510.2 11.6952C509.8 8.69517 509.4 5.79512 509 2.89512Z" fill="#EB5017"/>
<path d="M513.5 16.1952C513.6 17.5952 512.2 18.6952 510.5 18.7952C508.8 18.8952 507.3 17.7951 507.3 16.3951C507.2 14.9951 508.5 13.7952 510.3 13.7952C512 13.7952 513.5 14.7952 513.5 16.1952Z" fill="#760620"/>
<path d="M493.6 58.1952C492.7 55.3952 491.8 52.6951 490.9 49.8951C496.7 46.4951 502.7 43.1952 508.7 39.9952C514.6 42.5952 520.4 45.1952 526.1 47.9952C525.8 50.7952 525.6 53.6952 525.3 56.4952C514.7 56.6952 504.2 57.2952 493.6 58.1952Z" fill="#E48795"/>
<path d="M536.6 56.1952C535.9 53.3952 535.2 50.6951 534.5 47.8951C539.7 45.1951 544.9 42.5952 550.2 39.9952C556 42.6952 561.8 45.5952 567.5 48.4952C566.4 51.1952 565.3 53.7952 564.2 56.4952C555 56.0952 545.8 56.0952 536.6 56.1952Z" fill="#E48795"/>
<path d="M574.4 56.7952C575.5 54.1952 576.6 51.4951 577.7 48.8951C583.8 48.0951 590 47.3952 596.2 46.6952C593.5 50.2952 590.9 53.8952 588.2 57.5952C583.6 57.2952 579 56.9952 574.4 56.7952Z" fill="#E48795"/>
<path d="M485.7 58.8951C484.9 55.9951 484.1 53.0952 483.2 50.1952C477.4 48.5952 471.5 47.1952 465.5 45.7952C461.4 48.3952 457.4 50.9952 453.4 53.6952C455.3 56.3952 457.2 59.1951 459.1 61.8951C468 60.7951 476.8 59.6951 485.7 58.8951Z" fill="#E48795"/>
<path d="M449.3 63.3951C447.6 60.6951 445.9 57.9952 444.2 55.2952C439.2 54.6952 434.2 54.1952 429.2 53.6952C431.9 57.5952 434.5 61.4951 437.2 65.3951C441.2 64.6951 445.3 63.9951 449.3 63.3951Z" fill="#E48795"/>
<path d="M428.1 51.9952C433.8 52.6952 439.4 53.3952 445 54.1952C447.8 53.7952 450.5 53.3952 453.3 52.9952C457.3 49.8952 461.3 46.8951 465.4 43.8951C471.8 45.6951 478.1 47.6952 484.4 49.6952C486.2 49.4952 488 49.3952 489.9 49.2952C495.9 45.5952 502 41.8952 508.2 38.2952C514.4 41.1952 520.5 44.1952 526.5 47.1952C528.6 47.1952 530.7 47.0952 532.8 47.0952C538.5 44.1952 544.4 41.3952 550.2 38.6952C556.4 41.6952 562.5 44.6951 568.5 47.8951C571.7 47.9951 575 48.0952 578.2 48.1952C584.3 46.9952 590.5 45.8952 596.7 44.7952C596.5 45.3952 596.2 45.9952 596 46.5952C589.8 47.1952 583.6 47.8952 577.5 48.7952C574.1 48.5952 570.7 48.3952 567.4 48.2952C561.7 45.3952 556 42.5952 550.1 39.7952C544.8 42.3952 539.5 44.9952 534.4 47.6952C531.6 47.6952 528.8 47.7951 526 47.8951C520.3 45.0951 514.5 42.3952 508.6 39.7952C502.6 42.9952 496.6 46.2952 490.8 49.6952C488.3 49.8952 485.7 50.0952 483.2 50.2952C477.3 48.5952 471.4 47.0952 465.4 45.5952C461.3 48.1952 457.3 50.8952 453.4 53.6952C450.3 54.0952 447.2 54.5952 444.1 55.0952C439.1 54.4952 434.1 53.9952 429.1 53.4952C428.9 53.0952 428.5 52.5952 428.1 51.9952Z" fill="#FBF497"/>
<path d="M456.1 141.395C458.1 144.795 460 148.195 461.9 151.595C467.1 150.895 472.4 150.195 477.6 149.595C477.2 145.795 476.7 141.995 476.3 138.095C469.6 139.095 462.8 140.195 456.1 141.395Z" fill="#E48795"/>
<path d="M480.3 137.695C481.4 141.495 482.4 145.195 483.4 148.995C488.5 148.495 493.5 148.095 498.6 147.695C498.7 143.595 498.8 139.495 498.9 135.395C492.7 136.095 486.5 136.895 480.3 137.695Z" fill="#E48795"/>
<path d="M503.9 135.095C504.8 139.095 505.7 143.195 506.6 147.195C511.4 146.895 516.3 146.695 521.2 146.595C521.8 142.295 522.5 137.895 523.1 133.595C516.6 133.895 510.3 134.495 503.9 135.095Z" fill="#E48795"/>
<path d="M526.5 133.295C527.2 137.695 527.8 141.995 528.5 146.395C532.8 146.295 537.1 146.295 541.3 146.295C542.4 141.795 543.5 137.195 544.6 132.695C538.5 132.795 532.5 132.995 526.5 133.295Z" fill="#E48795"/>
<path d="M548.4 132.795C548.8 137.395 549.1 141.895 549.5 146.495C553.1 146.595 556.8 146.695 560.4 146.895C562.2 142.195 564 137.495 565.8 132.795C560 132.695 554.2 132.695 548.4 132.795Z" fill="#E48795"/>
<path d="M571.4 133.095C570.4 137.795 569.4 142.495 568.4 147.295C569 147.295 569.7 147.395 570.3 147.395C572.6 142.595 575 137.895 577.4 133.195C575.4 133.095 573.4 133.095 571.4 133.095Z" fill="#E48795"/>
<path d="M517.6 56.6952C518.2 82.3952 518.8 108.095 519.3 133.695C519.5 133.695 519.7 133.595 519.9 133.595C519.9 107.895 519.8 82.2952 519.8 56.5952C519.1 56.5952 518.4 56.6952 517.6 56.6952Z" fill="#760620"/>
<path d="M508.7 87.2952C503 87.0952 506.2 95.9952 505 96.4952C503.8 96.9952 497.4 97.9952 495.8 99.2952C494.3 100.595 493.5 104.995 494.1 105.795C494.6 106.595 496.9 106.095 497.7 105.795C498.5 105.495 498.1 101.895 498.9 101.295C499.6 100.695 509.1 99.5952 510.1 98.9952C511.1 98.4952 512.6 87.4952 508.7 87.2952Z" fill="#DA6980"/>
<path d="M493.9 103.795C495.4 103.795 496.8 103.795 498.3 103.795C498.3 103.795 499 106.295 498.6 106.495C498.2 106.695 493.9 107.895 493.4 107.795C492.7 107.595 493.9 103.795 493.9 103.795Z" fill="#BF3D36"/>
<path d="M525.4 87.9952C518.5 87.0952 519 92.5951 519.1 95.7951C519.2 98.9951 527.1 100.095 526.3 101.095C525.5 101.995 520.2 104.595 520.6 106.795C521 108.995 521.6 110.295 522.3 110.195C523 110.095 526 108.395 526.4 107.895C526.8 107.495 524.7 105.895 524.9 105.395C525 104.895 531.4 102.095 532.2 101.395C532.9 100.595 529.2 97.3951 529.5 95.8951C529.6 94.3951 528.2 88.3952 525.4 87.9952Z" fill="#DA6980"/>
<path d="M521 108.795C522.6 108.095 524.2 107.495 525.8 106.895C525.8 106.895 527.7 108.695 527.5 108.895C527.3 109.195 523.1 113.095 522.6 113.195C522.1 113.195 521 108.795 521 108.795Z" fill="#BF3D36"/>
<path d="M532.4 87.7951C532.4 87.7951 536 86.5952 540.8 89.1952C545.7 91.7952 547.5 95.8951 547.5 95.8951C546 97.1951 544.4 98.4951 542.9 99.7951C542.9 99.7951 543 98.6952 541.6 96.4952C540.1 94.1952 538.6 93.1952 538.6 93.1952C538.6 93.1952 540.7 95.7951 541.3 97.2951C541.9 98.7951 541.9 100.495 541.9 100.495C541.2 100.495 540.4 100.495 539.7 100.495C539.7 100.495 540.2 97.5952 537.8 94.4952C535.4 91.4952 533.4 89.9952 533.4 89.9952C533.1 89.2952 532.7 88.5951 532.4 87.7951Z" fill="#EB5017"/>
<path d="M493.5 78.5952C493.5 78.5952 490.8 78.4952 489.3 78.5952C487.8 78.6952 487.2 78.9952 487.2 78.9952C487.3 78.3952 487.3 77.6952 487.4 77.0952C488.6 76.9952 489.7 76.8952 490.9 76.7952C489.9 75.8952 488.9 74.8952 487.9 73.9952C487.8 73.9952 496.9 61.8952 507.7 67.6952C516.1 72.2952 514.9 78.1952 515.8 82.2952C516.4 85.2952 517.5 86.6952 517.5 86.6952C517.7 86.8952 518 87.0952 518.2 87.2952C516.9 87.7952 515.6 88.3951 514.3 88.8951C514.3 88.8951 509.5 85.0952 509.1 84.7952C508.8 84.4952 504.1 76.9952 504 76.9952C501.9 76.7952 499.8 76.6952 497.7 76.4952C496.2 77.1952 494.8 77.8952 493.5 78.5952Z" fill="#EB5017"/>
<path d="M497.7 72.1952C493.5 73.7952 492.9 78.2952 493.8 79.7952C494.7 81.2952 495.5 82.5952 494.9 84.5952C494.3 86.4952 493.4 86.3952 493.4 87.1952C493.5 87.9952 494.9 89.0952 496.4 89.1952C498 89.2952 498.3 88.2952 498.3 88.2952C498.3 88.2952 499.3 88.8952 500.2 88.5952C501.1 88.2952 500.5 86.4952 501.2 85.1952C501.9 83.8952 502.9 83.7952 503.9 83.1952C504.9 82.5952 504.5 82.1952 504.5 82.1952C504.5 82.1952 503.4 86.7952 502.5 91.2952C501.6 95.6952 503.1 97.6952 506.4 99.3952C509.7 101.095 514.7 98.3952 519.8 97.2952C523.7 96.4952 528.9 100.195 530.7 99.0952C535.6 95.7952 534 88.1952 531.2 87.0952C526 84.9952 516 88.5952 512.9 86.3952C509.9 83.9952 509.9 67.6952 497.7 72.1952Z" fill="#E48795"/>
<path d="M499.7 74.3951C499.7 74.3951 499 71.4951 499.6 69.9951C500.2 68.4951 503.1 67.0951 503.6 66.9951C504.1 66.9951 503.7 71.2951 502.9 72.3951C502 73.4951 499.7 74.3951 499.7 74.3951Z" fill="#E48795"/>
<path d="M528.5 88.1952C521.6 87.2952 522.1 92.6952 522.1 95.9952C522.1 99.1952 530.1 100.395 529.2 101.295C528.3 102.195 523.1 104.795 523.5 106.995C523.9 109.195 524.5 110.495 525.2 110.395C525.9 110.295 528.9 108.595 529.3 108.195C529.7 107.795 527.7 106.195 527.8 105.695C527.9 105.195 534.4 102.495 535.1 101.695C535.8 100.895 532.1 97.5952 532.4 96.1952C532.7 94.6952 531.3 88.5952 528.5 88.1952Z" fill="#E48795"/>
<path d="M508.8 89.2952C503.1 89.0952 506.3 97.9952 505.1 98.4952C503.9 98.9952 497.5 99.9952 496 101.295C494.5 102.595 493.7 106.995 494.3 107.795C494.8 108.595 497.1 108.095 497.9 107.795C498.7 107.495 498.3 103.895 499.1 103.295C499.8 102.695 509.2 101.595 510.3 100.995C511.3 100.495 512.7 89.4952 508.8 89.2952Z" fill="#E48795"/>
<path d="M524 108.995C525.6 108.395 527.2 107.695 528.8 107.095C528.8 107.095 530.7 108.895 530.5 109.095C530.3 109.395 526.1 113.295 525.6 113.295C525.1 113.395 524 108.995 524 108.995Z" fill="#EB5017"/>
<path d="M494.1 105.795C495.6 105.795 497 105.795 498.5 105.795C498.5 105.795 499.2 108.295 498.8 108.495C498.4 108.695 494.2 109.895 493.6 109.795C492.9 109.595 494.1 105.795 494.1 105.795Z" fill="#EB5017"/>
<path d="M514.9 86.8951C514.9 86.8951 515.8 89.8952 516.8 90.5952C517.8 91.2952 525.7 90.4952 526.6 90.0952C527.5 89.7952 525.6 86.1952 525.6 86.1952C522 86.4952 518.5 86.6951 514.9 86.8951Z" fill="#FBF497"/>
<path d="M562.7 99.3952C557.1 98.5952 559.5 107.795 558.3 108.195C557.1 108.595 550.7 108.995 549.1 110.195C547.5 111.395 546.3 115.695 546.8 116.495C547.3 117.295 549.5 116.995 550.3 116.795C551.1 116.595 551.1 112.895 551.8 112.495C552.6 111.995 561.9 111.695 563 111.295C564 110.795 566.5 99.8952 562.7 99.3952Z" fill="#DA6980"/>
<path d="M546.7 114.495C548.1 114.595 549.6 114.795 551 114.895C551 114.895 551.4 117.395 551 117.595C550.6 117.795 546.3 118.595 545.8 118.395C545.2 118.095 546.7 114.495 546.7 114.495Z" fill="#BF3D36"/>
<path d="M579.001 101.495C572.301 99.9952 572.301 105.495 572.101 108.695C571.901 111.895 579.501 113.695 578.601 114.595C577.701 115.395 572.301 117.495 572.501 119.795C572.701 121.995 573.201 123.395 573.901 123.295C574.601 123.295 577.701 121.795 578.101 121.395C578.501 120.995 576.701 119.295 576.801 118.795C577.001 118.295 583.501 116.095 584.301 115.395C585.101 114.695 581.801 111.095 582.201 109.695C582.601 108.295 581.701 102.195 579.001 101.495Z" fill="#DA6980"/>
<path d="M572.8 121.895C574.4 121.395 576 120.895 577.6 120.395C577.6 120.395 579.3 122.295 579.1 122.595C578.9 122.895 574.4 126.395 573.9 126.395C573.5 126.395 572.8 121.895 572.8 121.895Z" fill="#BF3D36"/>
<path d="M585.9 101.995C585.9 101.995 589.5 101.095 594 104.095C598.5 107.095 599.9 111.395 599.9 111.395C598.3 112.595 596.6 113.695 595 114.895C595 114.895 595.2 113.895 594 111.395C592.8 108.995 591.4 107.795 591.4 107.795C591.4 107.795 593.2 110.595 593.6 112.195C594 113.795 593.9 115.495 593.9 115.495C593.2 115.395 592.4 115.395 591.7 115.295C591.7 115.295 592.5 112.395 590.4 109.195C588.4 105.995 586.5 104.295 586.5 104.295C586.4 103.595 586.1 102.795 585.9 101.995Z" fill="#EB5017"/>
<path d="M548.6 89.2951C548.6 89.2951 546 88.9951 544.5 88.8951C543 88.8951 542.4 89.0951 542.4 89.0951C542.5 88.4951 542.6 87.7952 542.7 87.1952C543.8 87.1952 545 87.1952 546.1 87.1952C545.2 86.1952 544.3 85.1952 543.4 84.1952C543.3 84.1952 553.3 72.9952 563.4 79.6952C571.2 85.0952 569.5 90.7951 570 94.8951C570.3 97.8951 571.3 99.4952 571.3 99.4952C571.5 99.6952 571.7 99.8952 572 100.195C570.7 100.595 569.4 101.095 568 101.495C568 101.495 563.6 97.2952 563.3 96.9952C563 96.5952 559.1 88.6952 559.1 88.6952C557 88.2952 555 87.9952 552.9 87.6952C551.4 88.1952 550 88.6951 548.6 89.2951Z" fill="#EB5017"/>
<path d="M553.3 83.2952C549.1 84.4952 548 88.8952 548.8 90.4952C549.6 92.0952 550.2 93.4952 549.5 95.2952C548.8 97.0952 547.8 96.9952 547.8 97.7952C547.8 98.5952 549.1 99.7952 550.6 99.9952C552.1 100.195 552.5 99.2952 552.5 99.2952C552.5 99.2952 553.4 99.9953 554.4 99.6953C555.4 99.4953 554.9 97.6952 555.7 96.3952C556.5 95.0952 557.5 95.1952 558.6 94.5952C559.6 94.0952 559.2 93.6953 559.2 93.6953C559.2 93.6953 557.7 98.1952 556.4 102.595C555.1 106.895 556.4 108.995 559.5 110.995C562.6 112.995 567.7 110.695 572.9 110.095C576.8 109.595 581.6 113.895 583.4 112.895C588.5 110.095 587.7 102.395 585 100.995C580.1 98.3952 570 101.195 567.2 98.6953C564.1 96.1953 565.7 79.8952 553.3 83.2952Z" fill="#E48795"/>
<path d="M555.001 85.6952C555.001 85.6952 554.6 82.7952 555.3 81.2952C556 79.7952 559.001 78.6952 559.501 78.6952C560.001 78.6952 559.3 82.9952 558.3 83.9952C557.4 84.9952 555.001 85.6952 555.001 85.6952Z" fill="#E48795"/>
<path d="M582 101.995C575.3 100.495 575.3 105.995 575.1 109.195C574.8 112.395 582.5 114.295 581.6 115.095C580.7 115.895 575.3 117.995 575.5 120.195C575.6 122.395 576.2 123.795 576.8 123.795C577.5 123.795 580.6 122.295 581 121.895C581.4 121.495 579.6 119.795 579.7 119.295C579.9 118.795 586.4 116.695 587.2 115.995C588 115.295 584.7 111.695 585.1 110.195C585.5 108.795 584.7 102.695 582 101.995Z" fill="#E48795"/>
<path d="M562.6 101.395C557 100.595 559.4 109.795 558.2 110.195C557 110.595 550.6 110.995 549 112.195C547.4 113.395 546.3 117.695 546.7 118.495C547.2 119.295 549.4 118.995 550.2 118.795C551 118.595 551 114.895 551.7 114.495C552.5 113.995 561.8 113.695 562.9 113.295C564 112.695 566.5 101.895 562.6 101.395Z" fill="#E48795"/>
<path d="M575.7 122.395C577.3 121.895 578.9 121.395 580.5 120.895C580.5 120.895 582.2 122.795 582 123.095C581.8 123.395 577.3 126.895 576.8 126.895C576.3 126.895 575.7 122.395 575.7 122.395Z" fill="#EB5017"/>
<path d="M546.7 116.395C548.1 116.495 549.5 116.695 551 116.795C551 116.795 551.4 119.295 551 119.495C550.6 119.695 546.3 120.495 545.8 120.295C545.3 120.095 546.7 116.395 546.7 116.395Z" fill="#EB5017"/>
<path d="M568.8 99.4951C568.8 99.4951 569.4 102.595 570.3 103.395C571.2 104.195 579.1 104.095 580 103.795C580.9 103.495 579.4 99.8951 579.4 99.8951C575.8 99.6951 572.3 99.5951 568.8 99.4951Z" fill="#FBF497"/>
<path d="M462.1 111.495C456.6 111.695 460.4 120.295 459.3 120.895C458.2 121.495 452.1 122.995 450.7 124.395C449.3 125.795 449 130.295 449.6 130.995C450.2 131.795 452.3 131.095 453 130.695C453.7 130.295 453.1 126.795 453.7 126.195C454.4 125.595 463.3 123.695 464.3 123.095C465.4 122.495 465.9 111.395 462.1 111.495Z" fill="#DA6980"/>
<path d="M449.3 129.095C450.7 128.995 452.1 128.895 453.5 128.795C453.5 128.795 454.3 131.195 454 131.495C453.6 131.795 449.6 133.295 449.1 133.195C448.5 132.895 449.3 129.095 449.3 129.095Z" fill="#BF3D36"/>
<path d="M478.2 110.795C471.5 110.495 472.5 115.895 472.8 119.095C473.1 122.295 480.8 122.795 480.1 123.795C479.4 124.795 474.6 127.795 475.1 129.895C475.6 132.095 476.4 133.295 477 133.195C477.7 132.995 480.4 131.095 480.7 130.595C481 130.095 479 128.795 479 128.295C479.1 127.795 485 124.495 485.7 123.695C486.4 122.895 482.5 119.895 482.7 118.395C482.9 116.895 481 110.995 478.2 110.795Z" fill="#DA6980"/>
<path d="M475.8 131.995C477.3 131.195 478.7 130.495 480.2 129.695C480.2 129.695 482.2 131.295 482 131.595C481.8 131.895 478.1 136.195 477.7 136.195C477.2 136.295 475.8 131.995 475.8 131.995Z" fill="#BF3D36"/>
<path d="M485 110.095C485 110.095 488.3 108.595 493.2 110.795C498.1 112.995 500.1 116.995 500.1 116.995C498.7 118.395 497.4 119.795 496 121.295C496 121.295 496.1 120.195 494.5 118.095C492.9 115.895 491.4 114.995 491.4 114.995C491.4 114.995 493.6 117.395 494.3 118.895C495 120.395 495.2 122.095 495.2 122.095C494.5 122.195 493.8 122.195 493.1 122.295C493.1 122.295 493.3 119.295 490.8 116.495C488.3 113.695 486.2 112.395 486.2 112.395C485.8 111.595 485.4 110.795 485 110.095Z" fill="#EB5017"/>
<path d="M446.8 103.995C446.8 103.995 444.2 104.095 442.7 104.295C441.2 104.495 440.7 104.895 440.7 104.895C440.7 104.295 440.7 103.595 440.7 102.995C441.8 102.795 442.9 102.595 444 102.395C442.9 101.595 441.9 100.695 440.8 99.8951C440.7 99.8951 448.5 87.0951 459.4 92.0951C467.9 96.0951 467.2 101.995 468.3 105.995C469.1 108.895 470.3 110.295 470.3 110.295C470.6 110.495 470.8 110.695 471.1 110.795C469.9 111.395 468.7 112.095 467.5 112.695C467.5 112.695 462.6 109.295 462.2 108.995C461.8 108.695 456.7 101.595 456.7 101.595C454.7 101.595 452.6 101.595 450.5 101.595C449.3 102.395 448 103.195 446.8 103.995Z" fill="#EB5017"/>
<path d="M450.3 97.2952C446.4 99.1952 446.2 103.695 447.2 105.195C448.2 106.595 449.1 107.895 448.7 109.795C448.3 111.695 447.4 111.695 447.5 112.495C447.6 113.295 449.1 114.195 450.6 114.195C452.1 114.195 452.3 113.195 452.3 113.195C452.3 113.195 453.3 113.695 454.2 113.295C455.1 112.895 454.3 111.195 454.9 109.795C455.4 108.395 456.4 108.295 457.4 107.595C458.3 106.895 457.9 106.595 457.9 106.595C457.9 106.595 457.2 111.295 456.7 115.795C456.2 120.295 457.8 122.095 461.1 123.495C464.4 124.895 469 121.795 473.9 120.295C477.6 119.195 482.9 122.495 484.5 121.195C489 117.495 486.8 110.095 484 109.195C478.8 107.495 469.6 111.895 466.4 109.895C463 108.095 461.7 91.7952 450.3 97.2952Z" fill="#E48795"/>
<path d="M452.4 99.2952C452.4 99.2952 451.5 96.4952 451.9 94.8952C452.3 93.2952 455 91.6952 455.5 91.5952C456 91.4952 456 95.8952 455.3 96.9952C454.6 98.1952 452.4 99.2952 452.4 99.2952Z" fill="#E48795"/>
<path d="M481.2 110.795C474.5 110.495 475.4 115.795 475.7 119.095C476 122.295 483.7 122.795 483 123.795C482.3 124.695 477.4 127.695 478 129.895C478.5 132.095 479.2 133.295 479.9 133.195C480.6 132.995 483.3 131.095 483.6 130.595C483.9 130.095 481.9 128.795 481.9 128.295C482 127.795 487.9 124.595 488.6 123.695C489.3 122.895 485.4 119.895 485.6 118.395C485.8 116.895 484 110.995 481.2 110.795Z" fill="#E48795"/>
<path d="M462.4 113.395C456.9 113.595 460.7 122.195 459.6 122.795C458.5 123.395 452.4 124.895 451.1 126.295C449.7 127.695 449.4 132.195 450 132.895C450.6 133.695 452.7 132.995 453.4 132.595C454.1 132.195 453.5 128.695 454.1 128.095C454.8 127.495 463.7 125.595 464.7 124.995C465.7 124.395 466.2 113.295 462.4 113.395Z" fill="#E48795"/>
<path d="M478.6 131.895C480.1 131.095 481.5 130.395 483 129.595C483 129.595 485 131.195 484.8 131.495C484.6 131.795 480.9 136.095 480.4 136.095C480 136.195 478.7 131.895 478.6 131.895Z" fill="#EB5017"/>
<path d="M449.6 130.995C451 130.895 452.4 130.795 453.8 130.695C453.8 130.695 454.6 133.095 454.3 133.395C453.9 133.695 450 135.195 449.4 134.995C448.8 134.795 449.6 130.995 449.6 130.995Z" fill="#EB5017"/>
<path d="M468.1 110.595C468.1 110.595 469.2 113.495 470.2 114.095C471.2 114.695 478.8 113.295 479.6 112.895C480.5 112.495 478.4 109.095 478.4 109.095C474.9 109.595 471.5 110.095 468.1 110.595Z" fill="#FBF497"/>
<path d="M1073.8 132.795C1077 133.995 1080.2 135.295 1083.4 136.595C1082.8 137.095 1082.2 137.595 1081.7 137.995C1078.8 136.695 1075.9 135.395 1073 134.095C1073.3 133.795 1073.5 133.295 1073.8 132.795Z" fill="#760620"/>
<path d="M1073.2 129.795C1080.5 114.695 1088.4 99.6952 1096.9 84.9952C1096.3 84.8952 1095.7 84.7952 1095.1 84.6952C1086.7 99.2952 1078.9 114.195 1071.7 129.195C1072.2 129.395 1072.7 129.595 1073.2 129.795Z" fill="#760620"/>
<path d="M1069.8 127.395C1075.2 116.895 1080.9 106.495 1086.9 96.1953C1086.4 95.9953 1085.9 95.7952 1085.4 95.5952C1079.6 105.995 1074.1 116.495 1069 127.095C1069.3 127.195 1069.5 127.295 1069.8 127.395Z" fill="#760620"/>
<path d="M1005.3 108.595C1007.5 97.3951 1009.9 86.1951 1012.5 74.9951C1013.1 75.0951 1013.7 75.1951 1014.4 75.3951C1011.5 86.4951 1008.7 97.6951 1006.3 108.895C1005.9 108.795 1005.6 108.695 1005.3 108.595Z" fill="#760620"/>
<path d="M1013.5 108.495C1016.7 97.6952 1020.1 86.7952 1023.8 76.0952C1024.4 76.1952 1025 76.3952 1025.7 76.4952C1021.7 87.1952 1018 97.9952 1014.6 108.895C1014.3 108.695 1013.9 108.595 1013.5 108.495Z" fill="#760620"/>
<path d="M1007.1 108.995C1008.7 101.995 1010.3 94.9951 1012 87.9951C1019.3 88.8951 1026.6 89.8951 1033.8 91.1951C1030.6 98.3951 1027.6 105.595 1024.7 112.795C1018.9 111.395 1013 110.195 1007.1 108.995Z" fill="#692152"/>
<path d="M1011.8 88.7951C1018.9 90.1951 1025.9 91.7951 1032.8 93.4951C1033.1 92.6951 1033.5 91.9951 1033.8 91.1951C1026.6 89.9951 1019.3 88.8951 1012 87.9951C1012 88.2951 1011.9 88.5951 1011.8 88.7951Z" fill="#8FF3E3"/>
<path d="M1007.2 108.395C1013.3 109.295 1019.3 110.395 1025.3 111.495C1025.1 111.995 1024.9 112.395 1024.7 112.895C1018.9 111.495 1013 110.195 1007.1 108.995C1007.1 108.795 1007.2 108.595 1007.2 108.395Z" fill="#8FF3E3"/>
<path opacity="0.29" d="M1073.3 174.095C1073.1 174.695 1053.7 166.495 1027.8 159.295C1001.9 152.095 979.5 148.795 979.6 148.195C979.7 147.695 1002.4 150.095 1028.4 157.395C1054.4 164.595 1073.5 173.695 1073.3 174.095Z" fill="url(#paint0_linear)"/>
<path d="M1059.1 149.495C1059 149.895 1058.8 150.395 1058.7 150.795C1059.8 151.195 1060.9 151.595 1062 151.995C1062.2 151.595 1062.5 151.195 1062.7 150.795C1061.5 150.395 1060.3 149.895 1059.1 149.495Z" fill="#692152"/>
<path d="M995.8 135.495C996.6 125.995 997.5 116.595 998.5 107.095C1025.6 112.395 1051.4 120.095 1075.8 129.895C1071.1 137.795 1066.6 145.795 1062.4 153.895C1041.2 146.095 1019 139.795 995.8 135.495Z" fill="#692152"/>
<path d="M996.4 106.595C1024.8 111.795 1052 119.795 1077.6 130.095C1077.3 130.795 1077 131.495 1076.6 132.195C1051.2 121.895 1024.2 113.995 995.9 108.695C996 107.995 996.2 107.295 996.4 106.595Z" fill="#DA833F"/>
<path d="M996.1 131.495C1019.6 136.595 1042.1 143.595 1063.2 152.295C1062.9 152.895 1062.6 153.395 1062.3 153.995C1041.2 146.095 1018.9 139.895 995.7 135.595C995.9 134.195 996 132.895 996.1 131.495Z" fill="#8FF3E3"/>
<path d="M1073 134.695C1049.3 125.195 1024.2 117.695 997.9 112.495C998 111.395 998.1 110.295 998.2 109.195C1025 114.295 1050.6 121.895 1074.8 131.595C1074.2 132.595 1073.6 133.595 1073 134.695Z" fill="#8FF3E3"/>
<path d="M995.8 135.495C995.7 135.895 995.6 136.395 995.5 136.795C1018.6 141.295 1040.8 147.695 1061.8 155.795C1062 155.195 1062.2 154.495 1062.4 153.895C1041.2 146.095 1019 139.795 995.8 135.495Z" fill="#760620"/>
<path opacity="0.3" d="M998.2 109.195C998.1 109.795 998.1 110.295 998 110.895C1023.5 118.595 1047.6 128.595 1069.8 140.295C1071.4 137.395 1073.1 134.495 1074.8 131.595C1050.7 121.895 1025 114.295 998.2 109.195Z" fill="#4D1102"/>
<path opacity="0.43" d="M1012.2 130.495C1021.6 136.095 1030.7 141.895 1039.3 148.095C1024.2 143.295 1008.6 139.195 992.5 136.195C996.4 133.995 1000.3 131.895 1004.4 129.895C1006.9 129.995 1009.5 130.195 1012.2 130.495Z" fill="#4D1102"/>
<path d="M1007.4 128.595C1000.2 127.095 992.9 131.395 991.4 137.895C989.9 144.395 994.5 150.695 1001.3 151.995C1008.1 153.395 1015 149.495 1016.8 143.095C1018.8 136.695 1014.6 130.095 1007.4 128.595ZM1001.8 150.195C996 148.995 992.1 143.695 993.4 138.195C994.7 132.695 1000.8 129.095 1006.9 130.295C1013 131.595 1016.6 137.095 1015 142.595C1013.5 148.095 1007.6 151.395 1001.8 150.195Z" fill="#501E07"/>
<path d="M1006.9 130.295C1000.8 128.995 994.6 132.595 993.4 138.195C992.1 143.695 996 148.995 1001.8 150.195C1007.6 151.395 1013.5 147.995 1015 142.595C1016.6 137.195 1013 131.595 1006.9 130.295ZM1002.2 148.695C997.2 147.695 994 143.195 995.1 138.495C996.2 133.795 1001.4 130.795 1006.6 131.795C1011.8 132.895 1014.8 137.595 1013.5 142.195C1012.1 146.895 1007.1 149.695 1002.2 148.695Z" fill="#DD94C9"/>
<path d="M1005.6 131.695C1004.2 137.295 1002.8 142.895 1001.5 148.595C1001.6 148.595 1001.8 148.695 1001.9 148.695C1003.4 143.095 1004.9 137.495 1006.5 131.895C1006.2 131.795 1005.9 131.695 1005.6 131.695Z" fill="#DD94C9"/>
<path d="M995.2 137.995C1001.3 139.395 1007.4 140.995 1013.3 142.695C1013.3 142.895 1013.2 142.995 1013.2 143.195C1007.2 141.595 1001.1 140.195 995 138.895C995 138.595 995.1 138.295 995.2 137.995Z" fill="#DD94C9"/>
<path d="M1012 135.195C1006.7 138.395 1001.4 141.595 996.3 144.995C996.4 145.195 996.6 145.295 996.7 145.495C1001.8 142.095 1007 138.895 1012.4 135.695C1012.2 135.495 1012.1 135.295 1012 135.195Z" fill="#DD94C9"/>
<path d="M998.6 133.395C1001.9 138.195 1005.2 143.095 1008.3 147.995C1008.5 147.895 1008.6 147.795 1008.8 147.795C1005.7 142.895 1002.5 137.895 999.1 133.095C999 133.195 998.8 133.295 998.6 133.395Z" fill="#DD94C9"/>
<path d="M1052 153.095C1048.7 151.995 1045.1 153.695 1044 156.795C1042.9 159.995 1044.7 163.395 1047.9 164.395C1051.1 165.495 1054.6 163.895 1055.8 160.795C1057 157.695 1055.3 154.295 1052 153.095ZM1048.5 162.795C1046.2 161.995 1045 159.595 1045.8 157.395C1046.6 155.195 1049.1 153.995 1051.4 154.795C1053.7 155.595 1054.9 157.995 1054.1 160.195C1053.3 162.395 1050.8 163.595 1048.5 162.795Z" fill="#501E07"/>
<path d="M1051.5 154.595C1049.1 153.795 1046.4 154.995 1045.6 157.295C1044.8 159.595 1046.1 162.095 1048.5 162.895C1050.9 163.695 1053.5 162.495 1054.3 160.195C1055.1 157.995 1053.9 155.495 1051.5 154.595ZM1048.7 162.395C1046.7 161.695 1045.6 159.595 1046.3 157.595C1047 155.595 1049.2 154.595 1051.3 155.295C1053.4 155.995 1054.4 158.195 1053.7 160.095C1052.9 161.995 1050.7 162.995 1048.7 162.395Z" fill="#DD94C9"/>
<path d="M1050.9 155.195C1050.1 157.595 1049.2 159.895 1048.4 162.295C1048.5 162.295 1048.5 162.295 1048.6 162.395C1049.5 159.995 1050.4 157.695 1051.3 155.295C1051.1 155.195 1051 155.195 1050.9 155.195Z" fill="#DD94C9"/>
<path d="M1046.3 157.395C1048.7 158.295 1051.1 159.295 1053.5 160.295C1053.5 160.395 1053.4 160.395 1053.4 160.495C1051 159.595 1048.6 158.695 1046.1 157.795C1046.2 157.595 1046.3 157.495 1046.3 157.395Z" fill="#DD94C9"/>
<path d="M1053.3 156.895C1051 157.995 1048.7 159.195 1046.4 160.395C1046.4 160.495 1046.5 160.595 1046.5 160.595C1048.8 159.395 1051.1 158.295 1053.4 157.095C1053.4 157.095 1053.4 156.995 1053.3 156.895Z" fill="#DD94C9"/>
<path d="M1048 155.595C1049.1 157.895 1050.2 160.095 1051.3 162.395C1051.4 162.395 1051.4 162.295 1051.5 162.295C1050.4 159.995 1049.3 157.695 1048.2 155.495C1048.1 155.495 1048.1 155.495 1048 155.595Z" fill="#DD94C9"/>
<path d="M1050.4 151.695C1050.3 152.195 1050.1 152.695 1050 153.095C1051.2 153.495 1052.4 153.895 1053.6 154.295C1053.8 153.895 1054.1 153.395 1054.3 152.995C1052.9 152.595 1051.7 152.095 1050.4 151.695Z" fill="#692152"/>
<path d="M1050.8 153.395C1050.3 155.195 1049.8 156.995 1049.3 158.695C1049.7 158.795 1050.1 158.895 1050.5 158.895C1051.2 157.195 1051.9 155.595 1052.6 153.895C1052 153.795 1051.4 153.595 1050.8 153.395Z" fill="#692152"/>
<path d="M999.9 79.0952C1034.9 84.9952 1068.2 94.7951 1099.3 107.895C1100.5 102.795 1101.8 97.6952 1103 92.5952C1101.7 88.4952 1100.4 84.2952 1099 80.1952C1074.5 70.5952 1048.8 62.7952 1022.1 57.2952C1017.1 59.9952 1012.2 62.6952 1007.3 65.4952C1004.7 69.9952 1002.3 74.4952 999.9 79.0952Z" fill="#EB5017"/>
<path d="M1025.9 58.0952C1023 61.1952 1020.2 64.3952 1017.5 67.5952C1015.4 72.0952 1013.3 76.6952 1011.3 81.1952C1014.3 81.7952 1017.2 82.3952 1020.2 82.9952C1021.7 78.6952 1023.2 74.3952 1024.8 70.1952C1026.7 66.4952 1028.7 62.7952 1030.7 59.1952C1029 58.7952 1027.5 58.3952 1025.9 58.0952Z" fill="#8FF3E3"/>
<path d="M1043.2 62.1952C1040.7 65.6952 1038.2 69.1952 1035.8 72.7952C1034.1 76.9952 1032.5 81.2952 1030.9 85.4952C1033.8 86.1952 1036.7 86.8952 1039.6 87.6952C1040.5 83.2952 1041.5 78.8952 1042.5 74.4952C1044.6 70.8952 1046.7 67.2952 1048.9 63.6952C1047 63.1952 1045.1 62.6952 1043.2 62.1952Z" fill="#8FF3E3"/>
<path d="M1061.7 67.2952C1060.1 70.5952 1058.5 73.8952 1057 77.1952C1054.8 81.6952 1052.7 86.0952 1050.6 90.5952C1053.3 91.3952 1056 92.1952 1058.6 92.9952C1060.3 88.3952 1062 83.7952 1063.8 79.1952C1064.8 75.6952 1065.7 72.1952 1066.7 68.6952C1065.1 68.2952 1063.4 67.7952 1061.7 67.2952Z" fill="#8FF3E3"/>
<path d="M1078.6 72.6952C1077.7 76.1952 1076.8 79.6952 1075.9 83.1952C1073.9 87.6952 1071.9 92.1952 1070 96.6952C1072.1 97.3952 1074.2 98.0951 1076.3 98.8951C1078.2 94.2951 1080.1 89.7952 1082.1 85.1952C1082.4 81.4952 1082.8 77.8952 1083.1 74.1952C1081.6 73.7952 1080.1 73.2952 1078.6 72.6952Z" fill="#8FF3E3"/>
<path d="M1091 77.1952C1091.1 80.8952 1091.3 84.6951 1091.4 88.3951C1089.1 92.8951 1086.9 97.4952 1084.7 102.095C1087.5 103.195 1090.3 104.295 1093.1 105.395C1094.8 100.495 1096.5 95.6951 1098.2 90.8951C1097 86.7951 1095.8 82.6952 1094.6 78.5952C1093.4 77.9952 1092.2 77.5952 1091 77.1952Z" fill="#8FF3E3"/>
<path opacity="0.29" d="M1018.1 82.5952C1026.1 79.6952 1034.2 76.9952 1042.5 74.4952C1063.3 79.1952 1083.5 85.2952 1103 92.5952C1101.7 88.4952 1100.4 84.2952 1099 80.1952C1074.5 70.5952 1048.8 62.7952 1022.1 57.2952C1017.1 59.9952 1012.2 62.6952 1007.3 65.4952C1004.8 69.9952 1002.3 74.5952 999.9 79.0952C1006 80.0952 1012.1 81.2952 1018.1 82.5952Z" fill="#FDFCED"/>
<path d="M999.9 79.0952C1001.3 80.4952 1002.7 81.9952 1004.1 83.3952C1006.5 82.5952 1008.9 81.8953 1011.3 81.1953C1007.5 80.3953 1003.7 79.7952 999.9 79.0952Z" fill="#DD94C9"/>
<path d="M1011.2 81.1952C1011.9 82.6952 1012.7 84.1952 1013.4 85.6952C1015.6 84.7952 1017.8 83.8952 1020.1 82.9952C1017.2 82.3952 1014.2 81.7952 1011.2 81.1952Z" fill="#692152"/>
<path d="M1020.1 82.9951C1021.6 84.6951 1023 86.3951 1024.5 88.0951C1026.6 87.1951 1028.8 86.2951 1030.9 85.4951C1027.3 84.5951 1023.7 83.7951 1020.1 82.9951Z" fill="#DD94C9"/>
<path d="M1039.6 87.6952C1041.3 89.7952 1042.9 91.8952 1044.5 94.0952C1046.5 92.9952 1048.5 91.7952 1050.5 90.6952C1047 89.5952 1043.3 88.5952 1039.6 87.6952Z" fill="#DD94C9"/>
<path d="M1058.6 93.0952C1060.2 94.7952 1061.7 96.4952 1063.3 98.2952C1065.5 97.7952 1067.8 97.2952 1070 96.7952C1066.2 95.4952 1062.4 94.2952 1058.6 93.0952Z" fill="#DD94C9"/>
<path d="M1076.3 98.9951C1077.2 100.795 1078.1 102.495 1079 104.295C1080.9 103.595 1082.7 102.795 1084.6 102.095C1081.9 100.995 1079.1 99.9951 1076.3 98.9951Z" fill="#DD94C9"/>
<path d="M1093 105.295C1093.5 106.495 1094.1 107.795 1094.6 108.995C1096.1 108.595 1097.7 108.195 1099.2 107.895C1097.2 106.995 1095.1 106.195 1093 105.295Z" fill="#DD94C9"/>
<path d="M1030.9 85.4951C1032.1 86.7951 1033.3 87.9951 1034.5 89.2951C1036.2 88.7951 1037.9 88.1951 1039.6 87.6951C1036.7 86.8951 1033.8 86.1951 1030.9 85.4951Z" fill="#692152"/>
<path d="M1050.6 90.6952C1051.4 92.3952 1052.2 94.1951 1052.9 95.8951C1054.8 94.9951 1056.7 93.9952 1058.6 93.0952C1056 92.2952 1053.3 91.4952 1050.6 90.6952Z" fill="#692152"/>
<path d="M1070 96.7952C1070.8 98.2952 1071.5 99.7952 1072.3 101.295C1073.6 100.495 1075 99.6952 1076.3 98.9952C1074.2 98.1952 1072.1 97.4952 1070 96.7952Z" fill="#692152"/>
<path d="M1084.6 101.995C1085.5 104.095 1086.3 106.195 1087.2 108.295C1089.1 107.295 1091.1 106.295 1093 105.295C1090.2 104.195 1087.4 103.095 1084.6 101.995Z" fill="#692152"/>
<path d="M996.9 121.895C1022.1 126.095 1046.4 132.495 1069.4 140.895C1069 141.595 1068.7 142.195 1068.3 142.895C1045.6 134.395 1021.7 127.795 996.8 123.395C996.9 122.895 996.9 122.395 996.9 121.895Z" fill="#DD94C9"/>
<path opacity="0.29" d="M1339.01 280.862C1337.81 282.614 1277.46 254.51 1194.22 229.242C1111.16 203.593 1037.27 191.346 1038.02 189.523C1038.51 187.863 1113.88 197.378 1197.37 223.298C1281.14 248.855 1340.03 279.59 1339.01 280.862Z" fill="url(#paint1_linear)"/>
<path opacity="0.29" d="M1043.99 193.848C1043 195.941 973.786 175.897 880.592 162.791C787.522 149.244 706.505 148.583 707.002 146.491C707.251 144.618 789.386 142.085 882.952 155.852C976.768 169.178 1044.86 192.307 1043.99 193.848Z" fill="url(#paint2_linear)"/>
<path d="M747.1 145.595C747.1 145.595 744.1 117.995 756 119.995C767.8 121.995 768.3 126.995 768.3 126.995C768.3 126.995 767.1 112.795 774.4 111.095C781.7 109.395 785 120.095 785 120.095C785 120.095 793.7 104.795 800.2 106.395C806.7 107.995 803.4 121.795 803.4 121.795C803.4 121.795 809 112.195 821 114.595C833 116.995 832.6 129.595 832.6 129.595C832.6 129.595 839.9 116.595 851.5 117.495C863.1 118.395 861.1 130.395 861.1 130.395C861.1 130.395 869.8 118.495 876.5 119.195C883.2 119.895 881 128.795 881 128.695C881 128.695 885.5 116.595 894.2 118.095C902.9 119.595 896.5 131.195 896.5 131.195C896.5 131.195 912 128.195 917.6 133.295C923.3 138.395 914.6 145.095 914.6 145.095C914.6 145.095 926.2 142.395 935 145.595C943.7 148.695 932.1 156.895 932.1 156.895C932.1 156.895 940.8 155.595 949.5 159.695C958.2 163.795 955.7 168.295 955.7 168.295C955.7 168.295 970.9 156.995 977.2 159.395C983.5 161.795 972.5 174.095 972.5 174.095C898.9 160.695 823.6 151.095 747.1 145.595Z" fill="url(#paint3_linear)"/>
<path d="M829.7 138.995C833.8 141.295 837.9 143.595 842 145.795C841.6 148.695 841.2 151.495 840.8 154.395C841.9 154.495 843 154.595 844.1 154.795C844.2 151.895 844.3 148.895 844.4 145.995C851.5 144.295 858.6 142.595 865.7 140.895C862.4 141.395 859 141.895 855.7 142.395C855.9 141.195 856.2 140.095 856.4 138.895C855.8 140.095 855.3 141.295 854.7 142.495C853.8 142.795 852.8 143.095 851.9 143.295C850.9 142.295 849.9 141.295 848.8 140.295C849.5 141.395 850.1 142.495 850.8 143.595C848.5 144.095 846.3 144.495 844 144.995C843.9 143.895 843.8 142.795 843.8 141.695C843.4 141.595 842.9 141.495 842.5 141.395C842.6 142.595 842.7 143.795 842.7 144.895C838.4 142.895 834 140.995 829.7 138.995Z" fill="#473122"/>
<path d="M891.2 129.695C891.2 129.695 889.7 131.795 885.2 132.395C881 132.095 876 130.395 875.5 130.195C875.5 130.195 874.8 139.995 865.9 140.895H865.8C865.6 140.895 865.4 140.895 865.2 140.895C858.8 141.195 851.4 138.295 850.7 137.995C850.6 137.995 850.6 137.995 850.6 137.995C850.6 137.995 845.7 143.595 837.2 141.895C836.5 141.795 835.8 141.595 835 141.295C834.8 141.195 834.7 141.195 834.5 141.095C834.2 140.995 834 140.895 833.7 140.795C833.5 140.795 833.4 140.695 833.2 140.595C827.2 138.195 825.3 135.095 824.7 133.495C824.7 133.395 824.6 133.295 824.6 133.195C824.6 133.095 824.6 132.995 824.5 132.995C824.5 132.895 824.5 132.895 824.5 132.795C824.5 132.695 824.5 132.595 824.5 132.595C824.5 132.595 820.1 132.295 815.3 129.995C813.1 128.695 810.9 126.595 809.3 123.495C808.9 122.795 808.7 122.095 808.5 121.395C808.3 120.595 808.3 119.795 808.4 119.095V118.995C808.4 118.895 808.4 118.795 808.4 118.795C809.5 113.495 818.7 112.395 818.7 112.395C818.7 112.395 816.6 104.195 821.4 102.695C826.2 101.195 828 108.195 828 108.195C828 108.195 830.1 93.2951 839 92.8951C847.9 92.4951 844.4 101.995 844.4 101.995C844.4 101.995 858.2 90.3951 867.7 93.3951C877 96.2951 870.9 107.795 870.7 108.095C871.2 107.795 882.4 102.895 889.4 106.895C896.6 110.995 883.7 119.695 883.7 119.695C883.9 119.995 892.2 123.795 891.2 129.695Z" fill="#FEED1C"/>
<path opacity="0.55" d="M836.5 119.195C836.5 119.295 836.4 119.495 836.4 119.695C836.5 119.395 836.5 119.295 836.5 119.195Z" fill="#9EAB2A"/>
<path opacity="0.55" d="M891.2 129.695C891.2 129.695 889.7 131.795 885.2 132.395C881 132.095 876 130.395 875.5 130.195C875.5 130.195 874.8 139.995 865.9 140.895H865.8C865.6 140.895 865.4 140.895 865.2 140.895C858.8 141.195 851.4 138.295 850.7 137.995C850.6 137.995 850.6 137.995 850.6 137.995C850.6 137.995 845.7 143.595 837.2 141.895C836.2 141.695 835.3 141.395 834.5 141.195C834.2 141.095 834 140.995 833.7 140.895C833.5 140.895 833.4 140.795 833.2 140.695C827.1 138.395 825.3 135.195 824.7 133.595C824.7 133.495 824.6 133.395 824.6 133.295C824.6 133.195 824.6 133.095 824.5 133.095C824.5 132.995 824.5 132.995 824.5 132.895C824.5 132.795 824.5 132.695 824.5 132.695C824.5 132.695 820.1 132.395 815.3 130.095C813.1 128.795 810.9 126.695 809.3 123.595C808.9 122.895 808.7 122.195 808.5 121.495C808.3 120.495 808.4 119.695 808.4 119.195V119.095C808.4 118.895 808.4 118.795 808.4 118.795C808.4 118.795 808.4 118.795 808.4 118.895C808.9 119.895 813.5 129.695 819.3 129.595C821.1 129.595 818.9 126.095 818.6 125.795C819 126.095 824.7 130.695 826 128.395C827.2 126.195 826.6 122.995 826.5 122.395C826.8 122.995 828.4 126.095 831.7 125.695C834.6 125.295 836 121.295 836.5 119.695C836.2 121.095 836.1 124.195 840.3 125.195C845.7 126.595 847.1 124.495 847.1 124.495C847.1 124.495 844.5 132.495 850.4 133.695C856.2 134.895 857.5 129.795 857.5 129.795C857.5 129.795 861 132.495 863.6 130.695C866.1 129.095 864.5 124.995 864.4 124.695C864.6 124.895 866.3 126.895 868.9 126.295C871.6 125.695 871.8 121.095 871.8 121.195C871.8 121.195 872.8 124.995 877.4 128.195C881.8 131.495 891.2 129.695 891.2 129.695Z" fill="#9EAB2A"/>
<path d="M889.5 160.695C889.5 160.695 886.4 144.595 895.1 146.495C903.8 148.495 906.6 158.095 906.6 158.095C906.6 158.095 902.6 143.395 910 137.995C914.7 134.595 918.3 137.795 918.3 137.795C918.3 137.795 913.4 128.095 922.4 122.095C931.4 116.195 935.8 129.795 935.8 129.795C935.8 129.795 939.2 113.895 951.3 114.995C963.3 116.095 956 132.695 956 132.695C956 132.695 966 127.195 975 130.095C984 132.995 975.1 142.995 975.1 142.995C975.1 142.995 983.6 140.195 993.1 144.395C1002.6 148.595 993 158.195 993.1 158.195C993.1 158.195 1007.9 158.495 1014 165.995C1020.1 173.395 1015.5 180.195 1015.5 180.195C1015.5 180.195 1022.3 170.695 1031 173.095C1039.6 175.495 1036.7 187.395 1036.7 187.395C988.4 176.795 939.3 167.795 889.5 160.695Z" fill="#14920D"/>
<path d="M1044.4 187.895C1044.4 187.895 1051.3 164.695 1064.1 166.695C1076.9 168.695 1076 181.295 1076 181.295C1076 181.295 1072.2 159.295 1081.8 157.095C1091.5 154.995 1091.6 166.795 1091.6 166.795C1091.6 166.795 1094.4 150.195 1103 149.495C1111.7 148.795 1113.2 161.095 1113.2 161.095C1113.2 161.095 1116.8 143.795 1132.4 145.895C1149 148.195 1150.9 164.795 1150.9 164.795C1150.9 164.795 1155.9 148.595 1168.7 150.795C1181.4 152.995 1175 170.195 1175 170.195C1175 170.195 1190.1 167.495 1201.8 172.595C1213.5 177.695 1200.8 191.595 1200.9 191.695C1200.9 191.695 1210.6 187.495 1225.2 194.295C1239.7 201.095 1236.1 213.295 1236.1 213.295C1236.1 213.295 1250.3 206.195 1262.7 208.395C1275.1 210.595 1276.2 221.195 1276.2 221.195C1276.2 221.195 1283.5 212.895 1296 212.895C1308.5 212.895 1306.2 226.995 1306.2 226.995C1306.2 226.995 1315.2 225.495 1324.2 229.295C1333.2 233.095 1321.4 246.495 1321.5 246.495C1321.5 246.495 1331.4 247.495 1335.4 255.595C1339.4 263.595 1332.9 276.095 1333 276.095C1240.5 239.895 1144.1 210.295 1044.4 187.895Z" fill="url(#paint4_linear)"/>
<path d="M353.2 147.995L360.2 162.495L361.2 161.995L356.8 147.195L353.2 147.995Z" fill="#473122"/>
<path d="M355.3 150.995C352.6 151.995 349.3 148.995 345.7 143.395C329.7 118.095 308.9 39.5952 318.9 35.8952C319.5 35.6952 320.1 35.6952 320.8 35.9952C322.3 36.5952 324 38.0952 325.8 40.3952C342.5 61.2952 372.6 144.595 355.3 150.995Z" fill="url(#paint5_linear)"/>
<path opacity="0.2" d="M355.3 150.995C352.6 151.995 349.3 148.995 345.7 143.395C346.6 135.795 348.1 120.095 346.4 105.095C344.2 84.4952 321.3 37.2952 320.7 35.9952L325.7 40.3951C342.5 61.2951 372.6 144.595 355.3 150.995Z" fill="#4D1102"/>
<path d="M357.8 164.395C357.8 164.395 344.5 162.795 345.5 161.695C346.4 160.595 353 161.995 353 161.995C353 161.995 350.4 160.295 351.8 158.895C353.3 157.495 358.6 162.095 358.6 162.095C358.6 162.095 358 158.195 359.3 157.995C360.6 157.795 361.9 161.995 361.9 161.995C361.9 161.995 362.3 158.795 363.2 158.695C364.1 158.495 365.4 161.595 365.4 161.595L357.8 164.395Z" fill="#96801E"/>
<path d="M363.5 162.295C363.5 162.295 363.2 153.495 364.1 153.195C365 152.895 364.7 159.695 364.7 159.695C364.7 159.695 365.3 157.595 365.9 157.395C366.4 157.195 366.4 159.195 366.4 159.195C366.4 159.195 368 155.495 368.8 155.195C369.6 154.995 365.3 161.495 365.3 161.495L363.5 162.295Z" fill="#96801E"/>
<path opacity="0.29" d="M1370.9 172.595C1370.3 173.595 1353.3 163.495 1330.4 152.495C1307.6 141.395 1287.6 133.795 1288.1 132.695C1288.5 131.695 1309.3 137.695 1332.3 148.795C1355.4 159.895 1371.5 171.695 1370.9 172.595Z" fill="url(#paint6_linear)"/>
<path d="M1323.2 146.495C1326.5 146.395 1329.7 146.395 1333 146.395C1332.5 146.095 1332.1 145.795 1331.6 145.495C1329 145.495 1326.3 145.495 1323.7 145.595C1324 143.995 1324.2 142.495 1324.5 140.895C1324.1 140.595 1323.7 140.295 1323.3 139.995C1323.1 141.695 1322.9 143.395 1322.8 145.195C1320.9 142.395 1319 139.595 1317 136.895C1317.9 138.695 1318.9 140.495 1319.8 142.295C1317.4 140.495 1314.9 138.695 1312.5 136.895C1312.2 136.795 1312 136.695 1311.7 136.595C1315.1 139.695 1318.5 142.695 1321.8 145.895C1322.2 146.095 1322.7 146.295 1323.2 146.495Z" fill="#5B4532"/>
<path d="M1305.5 126.095C1305.5 126.095 1298.5 127.595 1299.4 130.495C1299.5 130.995 1299.9 131.495 1300.4 131.995C1305 135.495 1339.6 148.695 1339.3 149.095C1339.3 149.095 1340.6 149.295 1342.3 149.295C1345.9 149.395 1351.5 149.095 1351.8 145.595C1352.3 140.395 1343.4 139.795 1343.4 139.795C1343.4 139.695 1357.1 135.795 1354.9 131.195C1352.7 126.595 1344.2 128.795 1343.8 128.895C1344.1 128.595 1354.3 120.295 1348 116.995C1341.5 113.595 1336 122.495 1336.1 122.495C1336.1 122.495 1339.2 111.495 1332 108.395C1324.7 105.295 1321.1 110.095 1321.2 110.095C1321.2 110.095 1317 104.295 1312 105.095C1307.1 105.895 1309.8 114.995 1309.8 114.995C1309.8 114.995 1299.9 113.095 1297.6 117.195C1295.4 121.295 1305.5 125.995 1305.5 126.095Z" fill="#D1B12A"/>
<path opacity="0.2" d="M1299.3 130.495C1299.4 130.995 1299.8 131.495 1300.3 131.995C1304.9 135.495 1339.5 148.695 1339.2 149.095C1339.2 149.095 1340.5 149.295 1342.2 149.295C1342.4 149.195 1342.7 149.195 1342.9 149.095C1342.9 149.095 1335.6 146.495 1332.7 143.195C1329.7 139.895 1331.7 136.195 1331.7 136.195C1331.7 136.195 1325.5 137.095 1321.6 135.395C1317.7 133.695 1319.8 127.295 1319.9 127.295C1319.9 127.295 1315.5 130.495 1311.8 129.995C1308.2 129.495 1307.1 124.995 1307.1 124.995C1307.1 124.995 1306.4 128.495 1303 129.795C1301.5 130.295 1300.2 130.495 1299.3 130.495Z" fill="#4D1102"/>
<path d="M1333.5 150.995C1333.5 150.895 1347.4 154.795 1347.4 152.095C1347.4 149.295 1341.6 147.395 1341.6 147.495C1341.6 147.495 1348 143.295 1346.1 141.595C1344.2 139.795 1340.7 143.495 1340.7 143.495C1340.6 143.495 1348.6 132.395 1344.7 130.895C1340.8 129.395 1336.7 139.795 1336.7 139.795C1336.7 139.795 1336.5 130.695 1332.9 129.795C1329.3 128.995 1331.6 142.095 1331.6 142.095C1331.6 142.095 1327.2 136.595 1323.1 136.595C1319.1 136.595 1330 149.195 1329.9 149.295C1331.2 149.795 1332.4 150.395 1333.5 150.995Z" fill="#14920D"/>
<path d="M1312.1 124.195C1310.2 129.195 1308.4 134.295 1306.6 139.395C1307.1 139.495 1307.6 139.495 1308.1 139.595C1310.5 135.095 1313 130.595 1315.6 126.195C1314.4 125.495 1313.3 124.895 1312.1 124.195Z" fill="#473122"/>
<path d="M1311.5 127.795C1308.6 126.595 1308.3 122.195 1309.8 115.695C1313.2 101.095 1327.1 75.9952 1344 56.3952C1360.5 36.5952 1379.9 22.1952 1386.1 25.2952C1386.8 25.5952 1387.3 26.1952 1387.6 26.8952C1388.3 28.3952 1388.1 30.6952 1387.3 33.5952C1383.5 46.4952 1366.9 71.1952 1351.4 92.4952C1335.5 113.695 1320.7 131.495 1311.5 127.795Z" fill="#9EAB2A"/>
<path d="M1311.5 127.795C1308.6 126.595 1308.3 122.195 1309.8 115.695C1316.5 110.895 1330.5 100.995 1342.5 89.8951C1358.1 74.3951 1386.4 27.8951 1387.7 26.8951C1387.6 29.0951 1387.5 31.3952 1387.4 33.5952C1383.6 46.4952 1367 71.1952 1351.5 92.4952C1335.5 113.695 1320.7 131.495 1311.5 127.795Z" fill="#728B28"/>
<path d="M1264.7 121.795C1264.7 121.795 1265.1 99.5951 1268.1 100.395C1271 101.195 1266.7 117.995 1266.7 117.995C1266.6 117.995 1274.9 101.795 1277.3 102.395C1279.5 102.995 1273 116.795 1273 116.795C1272.9 116.795 1283.4 107.195 1286.4 108.195C1289.3 109.195 1282.8 118.895 1282.9 118.895C1282.9 118.895 1283.4 119.295 1284.5 119.595C1285.6 119.995 1282.8 122.095 1282.8 122.095C1282.8 121.995 1296.7 117.895 1298.8 119.595C1300.8 120.995 1278 126.595 1278.1 126.795C1273.7 124.995 1269.2 123.395 1264.7 121.795Z" fill="#F9EB56"/>
<path d="M1261.2 120.195C1261.2 120.195 1258.9 107.195 1257.7 106.695C1256.5 106.095 1256.8 111.495 1256.8 111.495C1256.8 111.495 1250.6 105.795 1248.5 106.595C1246.5 107.395 1254.2 116.295 1254.2 116.295C1254.2 116.295 1247.4 112.895 1246.6 114.295C1245.9 115.695 1259.1 119.595 1259.1 119.695C1259.8 119.795 1260.5 119.995 1261.2 120.195Z" fill="#F9EB56"/>
<path d="M58.1999 236.195C51.6999 239.395 45.2999 242.795 38.8999 246.195C39.9999 247.895 41.1999 249.595 42.2999 251.295C97.6999 222.295 159.3 199.695 225.7 185.395C225.3 183.995 224.9 182.495 224.5 181.095C165 193.295 109.3 212.095 58.1999 236.195Z" fill="#9B0C01"/>
<g opacity="0.5">
<path opacity="0.5" d="M115.7 203.095C115.7 203.095 116.1 200.095 121.3 194.495C128.6 186.595 134.7 183.695 134.7 183.695C137.1 187.895 139.5 191.995 141.9 196.195C133.3 199.095 124.9 201.995 116.5 205.195C116.2 204.495 116 203.795 115.7 203.095Z" fill="#7BB7E9"/>
<path opacity="0.5" d="M162.4 189.795C162.2 186.895 161.9 183.995 161.6 181.195C154.6 185.595 147.8 190.195 141 194.795C141.3 195.295 141.5 195.695 141.8 196.195C148.7 193.995 155.5 191.795 162.4 189.795Z" fill="#7BB7E9"/>
<path opacity="0.5" d="M161.7 181.195C161.1 180.495 160.4 179.795 159.8 179.095C153.4 184.095 147 189.095 140.9 194.195C141 194.395 141.1 194.595 141.2 194.795C147.8 190.195 154.7 185.595 161.7 181.195Z" fill="#66A8D9"/>
<path opacity="0.5" d="M153.3 184.095C152.9 181.695 152.6 179.295 152.2 176.795C153.2 176.495 154.2 176.195 155.1 175.895C155.6 177.695 156.2 179.595 156.7 181.395C155.6 182.295 154.5 183.195 153.3 184.095Z" fill="#501E07"/>
<path opacity="0.5" d="M115.7 203.095C115.7 203.095 120.2 200.895 121.3 199.695C122.5 198.495 117.5 199.195 117.5 199.195C117.6 199.195 115.9 201.695 115.7 203.095Z" fill="#FBF497"/>
<path opacity="0.5" d="M161.9 183.895C161.9 183.895 157.6 186.795 157.9 187.495C158.1 188.095 162.2 186.695 162.2 186.695C162.1 185.795 162 184.895 161.9 183.895Z" fill="#FBF497"/>
<path opacity="0.5" d="M136.4 186.595C137 186.195 137.6 185.895 138.2 185.495C138.4 185.795 138.6 186.095 138.8 186.395C138.1 186.695 137.5 186.995 136.8 187.395C136.7 187.095 136.6 186.795 136.4 186.595Z" fill="#501E07"/>
<path opacity="0.5" d="M136.7 182.495C137 182.295 137.3 182.195 137.6 181.995C138.9 184.095 140.1 186.195 141.4 188.395C141.2 188.495 141 188.495 140.8 188.595C139.5 186.495 138.1 184.495 136.7 182.495Z" fill="#501E07"/>
<path opacity="0.5" d="M138.2 185.495C137.7 184.495 137.2 183.495 136.8 182.495C137.3 183.095 137.7 183.695 138.2 184.295C138.3 184.895 138.4 185.495 138.6 185.995C139.1 186.395 139.6 186.695 140.1 187.095C140.4 187.595 140.7 188.095 140.9 188.595C140.2 187.895 139.6 187.195 138.9 186.495C138.6 186.095 138.4 185.795 138.2 185.495Z" fill="#501E07"/>
<path opacity="0.5" d="M134.7 183.695C136.9 187.395 139 191.095 141.1 194.795C148.1 192.395 155.1 190.195 162.3 187.995C162.4 188.595 162.4 189.195 162.5 189.795C155.1 191.995 147.8 194.195 140.5 196.595C138.6 192.295 136.7 187.995 134.7 183.695Z" fill="#66A8D9"/>
<path opacity="0.2" d="M116.1 203.995C116.1 203.995 121.1 203.295 128.9 198.295C137.9 192.595 138.1 189.395 138.1 189.395C139 190.995 139.9 192.595 140.8 194.195C147 189.095 153.3 183.995 159.7 179.095C160.3 179.795 161 180.495 161.6 181.195C161.9 184.095 162.1 186.995 162.4 189.795C146.8 194.495 131.4 199.595 116.4 205.095C116.3 204.795 116.2 204.395 116.1 203.995Z" fill="#213B8E"/>
<path opacity="0.5" d="M134.7 183.695C134.8 183.695 135 183.595 135.1 183.595C137.3 186.895 139.5 190.195 141.6 193.495C141.3 193.695 141 193.995 140.7 194.195C138.8 190.695 136.8 187.195 134.7 183.695Z" fill="#501E07"/>
<path opacity="0.5" d="M115.2 205.595C115.4 206.495 115.6 207.395 115.8 208.195C131.8 202.195 148.1 196.595 164.8 191.595C164.5 190.795 164.2 189.895 163.9 189.095C147.3 194.095 131.1 199.595 115.2 205.595Z" fill="#501E07"/>
<path opacity="0.5" d="M115.8 203.195C115.8 203.195 119.2 201.895 120.4 202.195C121.7 202.495 121.9 203.095 121.9 203.095C120.1 203.795 118.3 204.495 116.4 205.095C116.2 204.495 116 203.895 115.8 203.195Z" fill="#501E07"/>
<path opacity="0.5" d="M134.2 184.395C134.5 184.995 134.9 185.595 135.2 186.195C135.2 186.195 134.1 186.595 130.3 188.895C126.7 191.095 122.8 194.395 122.9 194.395C122.9 194.395 126.4 190.295 129.5 187.795C132.9 185.095 134.2 184.395 134.2 184.395Z" fill="#E2FFF1"/>
<path opacity="0.5" d="M135.5 186.595C135.7 186.995 135.9 187.395 136.1 187.695C136.1 187.695 134.6 188.295 132.5 189.295C130.5 190.295 128.5 191.695 128.5 191.695C128.5 191.695 130.3 189.795 132.1 188.595C133.8 187.395 135.5 186.595 135.5 186.595Z" fill="#E2FFF1"/>
<path opacity="0.5" d="M158.7 179.895C152.8 162.395 146.4 144.995 139.6 127.695C139.8 127.595 140.1 127.495 140.3 127.495C147.9 145.295 155 163.195 161.6 181.195C160.7 180.695 159.7 180.295 158.7 179.895Z" fill="#501E07"/>
</g>
<path opacity="0.5" d="M243.371 183.061C243.54 183.769 215.989 188.981 183.682 197.692C151.275 206.398 126.274 215.124 126.004 214.412C125.731 213.8 150.38 203.957 182.986 195.259C215.394 186.553 243.297 182.457 243.371 183.061Z" fill="#501E07"/>
<path opacity="0.5" d="M139.401 211.025C139.601 211.525 116.201 219.425 88.8014 230.925C61.4014 242.325 40.3014 252.825 40.0014 252.325C39.8014 251.925 60.4014 240.625 88.0014 229.125C115.501 217.625 139.201 210.525 139.401 211.025Z" fill="#501E07"/>
<path d="M126.7 203.995C126.7 203.995 127.4 199.695 134.9 191.795C145.6 180.595 154.5 176.695 154.5 176.695C157.9 182.695 161.1 188.795 164.3 194.795C151.9 198.495 139.7 202.495 127.7 206.795C127.4 205.895 127.1 204.895 126.7 203.995Z" fill="#D0C63A"/>
<path d="M194.2 186.695C194 182.595 193.8 178.395 193.6 174.295C183.3 180.195 173.2 186.395 163.3 192.695C163.7 193.395 164 193.995 164.4 194.695C174.2 191.895 184.1 189.195 194.2 186.695Z" fill="#D0C63A"/>
<path d="M193.6 174.395C192.7 173.395 191.8 172.295 190.9 171.295C181.3 177.995 172 184.895 162.9 191.995C163.1 192.295 163.2 192.595 163.4 192.895C173.2 186.495 183.2 180.295 193.6 174.395Z" fill="#9EAB2A"/>
<path d="M181.4 177.995C181 174.495 180.6 171.095 180.1 167.595C181.5 167.195 183 166.795 184.4 166.395C185.1 168.995 185.8 171.695 186.5 174.295C184.8 175.595 183.1 176.795 181.4 177.995Z" fill="#501E07"/>
<path d="M126.7 203.995C126.7 203.995 133.2 200.995 134.8 199.295C136.5 197.595 129.4 198.395 129.4 198.395C129.5 198.395 126.9 201.895 126.7 203.995Z" fill="#FBF497"/>
<path d="M193.8 178.295C193.8 178.295 187.5 182.195 187.8 183.095C188.1 183.995 194 182.195 194 182.195C193.9 180.995 193.8 179.695 193.8 178.295Z" fill="#FBF497"/>
<path d="M156.9 180.895C157.8 180.395 158.6 179.895 159.5 179.395C159.8 179.795 160.1 180.295 160.4 180.695C159.4 181.095 158.5 181.595 157.5 181.995C157.3 181.595 157.1 181.295 156.9 180.895Z" fill="#501E07"/>
<path d="M157.5 174.995C157.9 174.795 158.4 174.495 158.8 174.295C160.6 177.395 162.3 180.395 164 183.495C163.7 183.595 163.4 183.695 163.1 183.795C161.3 180.895 159.4 177.895 157.5 174.995Z" fill="#501E07"/>
<path d="M159.5 179.395C158.8 177.895 158.2 176.495 157.5 174.995C158.2 175.895 158.8 176.695 159.5 177.595C159.7 178.395 159.8 179.295 160 180.095C160.7 180.595 161.4 181.195 162.1 181.695C162.5 182.395 162.9 183.095 163.2 183.795C162.3 182.795 161.3 181.695 160.4 180.695C160.1 180.295 159.8 179.795 159.5 179.395Z" fill="#501E07"/>
<path d="M154.5 176.695C157.5 182.095 160.4 187.395 163.3 192.795C173.4 189.695 183.7 186.795 194.1 184.195C194.1 185.095 194.2 185.895 194.2 186.795C183.4 189.495 172.8 192.295 162.3 195.395C159.8 189.095 157.2 182.895 154.5 176.695Z" fill="#9EAB2A"/>
<path opacity="0.37" d="M127.2 205.195C127.2 205.195 134.3 204.295 145.7 197.395C158.8 189.495 159.2 185.095 159.2 184.995C160.4 187.295 161.7 189.595 162.9 191.895C172 184.795 181.3 177.895 190.9 171.195C191.8 172.195 192.7 173.295 193.6 174.295C193.8 178.395 194 182.595 194.2 186.695C171.4 192.395 149.3 199.195 127.7 206.795C127.6 206.295 127.4 205.695 127.2 205.195Z" fill="#7A9423"/>
<path d="M154.5 176.695C154.7 176.595 154.9 176.595 155.1 176.495C158.2 181.295 161.1 186.095 164.1 190.995C163.7 191.295 163.2 191.695 162.8 191.995C160.1 186.795 157.4 181.695 154.5 176.695Z" fill="#501E07"/>
<path d="M125.9 207.395C126.2 208.695 126.5 209.895 126.8 211.195C149.7 202.895 173.3 195.595 197.6 189.495C197.2 188.295 196.8 187.095 196.4 185.795C172.2 191.995 148.7 199.195 125.9 207.395Z" fill="#501E07"/>
<path d="M126.8 204.095C126.8 204.095 131.6 202.295 133.4 202.695C135.2 203.195 135.6 203.995 135.6 203.995C133 204.895 130.4 205.795 127.8 206.795C127.4 205.895 127.1 204.995 126.8 204.095Z" fill="#501E07"/>
<path d="M153.8 177.695C154.3 178.595 154.7 179.395 155.2 180.295C155.2 180.295 153.5 180.795 148.1 183.995C142.9 187.095 137.2 191.595 137.2 191.595C137.2 191.595 142.3 185.795 146.9 182.395C151.8 178.695 153.8 177.695 153.8 177.695Z" fill="#EB5017"/>
<path d="M155.6 180.895C155.9 181.495 156.1 181.995 156.4 182.595C156.4 182.595 154.2 183.295 151.2 184.695C148.2 186.095 145.4 187.895 145.4 187.895C145.4 187.895 148 185.295 150.7 183.595C153.1 181.895 155.6 180.895 155.6 180.895Z" fill="#EB5017"/>
<path d="M189.3 172.295C183.7 153.395 177.5 134.595 170.9 115.795C171.3 115.695 171.6 115.595 172 115.495C179.8 134.995 187 154.595 193.6 174.295C192.2 173.695 190.7 172.995 189.3 172.295Z" fill="#501E07"/>
<path d="M125.4 209.495C117.8 186.495 109.5 163.495 100.5 140.695C95.7999 141.995 91.0999 143.395 86.3999 144.795C98.1999 166.595 109.2 188.695 119.3 210.995C121.3 210.495 123.4 209.995 125.4 209.495Z" fill="#501E07"/>
<path d="M120 204.195C120 204.195 116.4 201.495 105.1 200.495C89.1999 199.195 79.9999 201.895 80.0999 201.895C82.1999 208.295 84.1999 214.795 86.1999 221.195C97.6999 216.195 109.4 211.395 121.4 206.995C120.9 206.095 120.5 205.195 120 204.195Z" fill="#EB5017"/>
<path d="M59.3996 233.795C56.6996 230.695 53.8996 227.495 51.0996 224.395C62.4996 222.395 73.9996 220.595 85.4996 219.095C85.6996 219.795 85.8996 220.495 86.1996 221.195C77.0996 225.295 68.1996 229.395 59.3996 233.795Z" fill="#EB5017"/>
<path d="M51.0997 224.395C50.9997 223.095 50.8997 221.795 50.6997 220.495C62.1997 219.495 73.6997 218.695 85.1997 218.195C85.2997 218.495 85.3997 218.795 85.4997 219.095C73.9997 220.595 62.4997 222.395 51.0997 224.395Z" fill="#9B0C01"/>
<path d="M62.1997 219.595C59.9997 216.795 57.7997 214.095 55.4997 211.395C54.1997 211.995 52.9997 212.595 51.6997 213.195C53.1997 215.495 54.5997 217.795 55.9997 220.095C58.0997 219.895 60.1997 219.695 62.1997 219.595Z" fill="#501E07"/>
<path d="M120 204.195C120 204.195 113.1 206.095 110.7 205.895C108.3 205.695 114 201.795 114 201.895C114 201.895 118.4 202.795 120 204.195Z" fill="#FBF497"/>
<path d="M53.7998 227.395C53.7998 227.395 60.9998 226.295 61.3998 227.195C61.7998 228.095 56.4998 230.395 56.4998 230.395C55.5998 229.395 54.6998 228.395 53.7998 227.395Z" fill="#FBF497"/>
<path d="M81.4996 206.395C80.4996 206.595 79.4996 206.795 78.5996 206.895C78.6996 207.395 78.7996 207.895 78.8996 208.395C79.8996 208.095 80.8996 207.795 81.8996 207.595C81.7996 207.195 81.6996 206.795 81.4996 206.395Z" fill="#501E07"/>
<path d="M76.7999 202.595C76.2999 202.695 75.7999 202.795 75.3999 202.895C76.3999 206.195 77.4999 209.495 78.4999 212.795C78.7999 212.695 78.9999 212.595 79.2999 212.395C78.3999 209.195 77.5999 205.895 76.7999 202.595Z" fill="#501E07"/>
<path d="M78.5998 206.995C77.9998 205.495 77.3998 204.095 76.7998 202.595C76.9998 203.595 77.0998 204.695 77.2998 205.695C77.7998 206.395 78.2998 207.095 78.7998 207.795C78.6998 208.595 78.5998 209.395 78.4998 210.295C78.6998 211.095 78.9998 211.795 79.1998 212.595C79.0998 211.295 78.9998 209.895 78.8998 208.595C78.7998 207.995 78.6998 207.495 78.5998 206.995Z" fill="#501E07"/>
<path d="M80.0997 201.895C81.8997 207.595 83.7997 213.295 85.4997 219.095C76.0997 223.195 66.7997 227.395 57.6997 231.795C58.2997 232.495 58.7997 233.095 59.3997 233.795C68.7997 229.095 78.2997 224.595 87.9997 220.295C85.4997 214.195 82.7997 208.095 80.0997 201.895Z" fill="#9B0C01"/>
<path opacity="0.35" d="M120.6 205.395C120.6 205.395 114.7 209.295 101.5 211.395C86.3998 213.895 82.9998 210.895 82.9998 210.795C83.7998 213.195 84.4998 215.695 85.2998 218.095C73.7998 218.595 62.2998 219.395 50.7998 220.395C50.8998 221.695 50.9998 222.995 51.1998 224.295C53.9998 227.395 56.7998 230.495 59.4998 233.695C79.3998 223.895 100.1 214.995 121.4 206.895C121.1 206.495 120.8 205.895 120.6 205.395Z" fill="#970000"/>
<path d="M80.0995 201.895C79.8995 201.995 79.6995 202.095 79.4995 202.095C80.8995 207.495 82.2995 212.795 83.5995 218.195C84.0995 218.195 84.6995 218.095 85.1995 218.095C83.4995 212.795 81.7995 207.395 80.0995 201.895Z" fill="#501E07"/>
<path d="M123.1 206.295C123.8 207.395 124.5 208.495 125.2 209.695C102.4 218.095 80.2998 227.595 58.9998 237.995C58.3998 236.895 57.8998 235.695 57.2998 234.595C78.3998 224.095 100.4 214.695 123.1 206.295Z" fill="#501E07"/>
<path d="M120.1 204.395C120.1 204.395 115.2 206.095 114.3 207.595C113.3 209.095 113.7 209.895 113.7 209.895C116.3 208.895 118.9 207.895 121.5 206.995C120.9 206.095 120.5 205.195 120.1 204.395Z" fill="#501E07"/>
<path d="M81.3999 202.195C81.6999 203.095 81.9999 203.995 82.2999 204.895C82.2999 204.895 83.7999 204.195 89.9999 203.095C95.9999 201.995 103.4 201.795 103.4 201.795C103.4 201.795 95.3999 200.795 89.6999 201.195C83.4999 201.695 81.3999 202.195 81.3999 202.195Z" fill="#8FD8DC"/>
<path d="M82.3999 205.595C82.5999 206.195 82.7999 206.695 83.0999 207.295C83.0999 207.295 85.1999 206.395 88.2999 205.595C91.3999 204.695 94.7999 204.295 94.7999 204.295C94.7999 204.295 90.9999 204.095 87.7999 204.495C84.9999 204.795 82.3999 205.595 82.3999 205.595Z" fill="#8FD8DC"/>
<path d="M52.5997 220.395C42.8997 203.395 32.5997 186.595 21.6997 169.895C21.3997 170.095 21.0997 170.195 20.6997 170.395C31.3997 188.195 41.4997 206.195 50.9997 224.395C51.5997 223.095 52.0997 221.695 52.5997 220.395Z" fill="#501E07"/>
<path d="M0.399902 182.395C63.2999 150.995 132.5 127.095 206.6 112.795C192.6 109.495 178.4 106.495 164.1 103.895C136.2 106.695 108.6 110.895 81.4999 116.295C58.2999 128.895 35.9999 142.295 14.7999 156.695C9.8999 165.195 5.0999 173.795 0.399902 182.395Z" fill="#9B0C01"/>
<path d="M28.6001 168.995C28.7001 163.595 28.9001 158.195 29.0001 152.795C45.8001 140.095 63.3001 127.895 81.5001 116.295C65.7001 127.595 50.5001 139.295 36.0001 151.395C36.6001 155.795 37.2001 160.195 37.8001 164.595C34.8001 166.095 31.7001 167.495 28.6001 168.995Z" fill="#FBF497"/>
<path d="M65.9999 153.395C63.7999 149.295 61.5999 145.195 59.3999 141.095C66.5999 132.795 73.9999 124.495 81.6999 116.395C76.4999 123.595 71.4999 130.795 66.5999 138.095C68.7999 142.295 71.0999 146.495 73.2999 150.595C70.6999 151.495 68.3999 152.395 65.9999 153.395Z" fill="#FBF497"/>
<path d="M109.4 137.895C105.7 133.495 101.9 129.095 98.0001 124.795C92.6001 121.895 87.1001 119.095 81.6001 116.395C89.9001 118.095 98.2001 119.895 106.4 121.795C111.7 125.595 117 129.495 122.2 133.495C117.9 134.895 113.6 136.295 109.4 137.895Z" fill="#FBF497"/>
<path d="M152.8 125.095C146 121.495 139.1 117.895 132.1 114.495C115.2 114.595 98.4001 115.295 81.6001 116.395C103 113.495 124.6 111.395 146.4 110.095C155 113.395 163.5 116.795 172 120.295C165.5 121.795 159.1 123.395 152.8 125.095Z" fill="#FBF497"/>
<defs>
<linearGradient id="paint0_linear" x1="1026.45" y1="148.132" x2="1026.45" y2="174.126" gradientUnits="userSpaceOnUse">
<stop stop-color="#2DBE25"/>
<stop offset="1" stop-color="#14920D"/>
</linearGradient>
<linearGradient id="paint1_linear" x1="1192.11" y1="212.399" x2="1185.12" y2="256.774" gradientUnits="userSpaceOnUse">
<stop stop-color="#2DBE25"/>
<stop offset="1" stop-color="#14920D"/>
</linearGradient>
<linearGradient id="paint2_linear" x1="875.5" y1="145" x2="875.5" y2="194" gradientUnits="userSpaceOnUse">
<stop stop-color="#2DBE25"/>
<stop offset="1" stop-color="#14920D"/>
</linearGradient>
<linearGradient id="paint3_linear" x1="862.955" y1="106.278" x2="862.955" y2="174.095" gradientUnits="userSpaceOnUse">
<stop stop-color="#2DBE25"/>
<stop offset="1" stop-color="#14920D"/>
</linearGradient>
<linearGradient id="paint4_linear" x1="1190.55" y1="145.718" x2="1190.55" y2="276.095" gradientUnits="userSpaceOnUse">
<stop stop-color="#A2CE21"/>
<stop offset="1" stop-color="#4B9D4F"/>
</linearGradient>
<linearGradient id="paint5_linear" x1="338.389" y1="35.7558" x2="338.389" y2="151.186" gradientUnits="userSpaceOnUse">
<stop stop-color="#2DBE25"/>
<stop offset="1" stop-color="#14920D"/>
</linearGradient>
<linearGradient id="paint6_linear" x1="1329.5" y1="132.587" x2="1329.5" y2="172.664" gradientUnits="userSpaceOnUse">
<stop stop-color="#2DBE25"/>
<stop offset="1" stop-color="#14920D"/>
</linearGradient>
</defs>
</svg>
