<svg width="1620" height="680" viewBox="0 0 1620 680" fill="none" xmlns="http://www.w3.org/2000/svg">
<path d="M837.113 545.866C837.113 545.866 838.342 540.278 853.423 539.977C864.584 539.809 868.482 543.756 868.482 543.756C868.482 543.756 866.273 528.077 878.538 527.731C892.7 527.352 886.383 545.492 886.383 545.492C886.383 545.492 892.21 528.246 897.548 529.606C902.886 530.965 903.671 544.836 903.671 544.836C903.671 544.836 912.221 520.583 930.637 531.703C940.325 537.571 928.53 550.117 928.53 550.117C928.53 550.117 935.29 549.616 941.099 550.809C946.908 552.002 949.503 557.428 949.503 557.428C949.503 557.428 955.668 555.483 962.444 555.931C969.316 556.41 970.77 563.468 970.77 563.468C926.454 556.068 881.85 550.254 837.113 545.866Z" fill="#C5E8FF"/>
<path opacity="0.36" d="M837.113 545.866C837.113 545.866 855.951 546.953 859.865 546.504C863.779 546.054 864.173 545.13 864.173 545.13C864.173 545.13 873.5 548.474 878.755 548.76C884.011 549.045 885.294 548.295 885.294 548.295C885.294 548.295 889.032 550.411 892.265 550.796C895.528 551.085 897.887 548.576 897.887 548.576C897.887 548.576 908.173 552.536 916.607 553.714C925.071 554.796 926.104 554.177 926.104 554.177C941.021 557.073 955.908 560.065 970.735 563.248C926.454 556.068 881.85 550.254 837.113 545.866Z" fill="#1A7EC3"/>
<path d="M946.435 194.84C946.435 194.84 950.021 185.814 959.742 187.151C969.472 188.388 977.094 195.466 977.094 195.466C977.094 195.466 978.977 186.394 987.264 186.905C997.054 187.445 1006.53 196.288 1006.53 196.288C1006.53 196.288 1006.57 179.43 1015.91 180.533C1025.25 181.637 1024.53 193.618 1024.53 193.618C1024.53 193.618 1030.01 181.142 1039.27 184.446C1049.98 188.276 1040.3 199.289 1040.3 199.289C1040.3 199.289 1053.44 189.979 1064.18 194.715C1074.91 199.451 1062.64 209.136 1062.64 209.136C1062.64 209.136 1072.61 206.38 1077.36 208.293C1082.12 210.207 1078.94 216.859 1078.94 216.859C1078.94 216.859 1092.91 216.554 1099.83 220.159C1106.75 223.765 1106.84 225.077 1106.84 225.077C1053.89 212.801 1000.25 202.775 946.435 194.84Z" fill="#C5E8FF"/>
<path opacity="0.36" d="M952.379 195.752C952.379 195.752 966.601 197.275 969.433 197.016C972.266 196.758 973.214 196.237 973.214 196.237C973.214 196.237 984.233 199.994 988.941 200.097C993.658 200.101 997.294 197.502 997.294 197.502C997.294 197.502 1000.48 200.184 1003.89 201.281C1007.31 202.377 1009.06 200.721 1009.06 200.721C1009.06 200.721 1020.78 205.642 1026.84 205.259C1032.98 204.984 1033.48 202.718 1033.48 202.718C1033.48 202.718 1038.91 206.095 1045.91 208.803C1052.9 211.512 1056.3 209.295 1056.3 209.295C1056.3 209.295 1065.43 213.993 1070.97 216.075C1076.52 218.157 1078.34 218.012 1078.34 218.012C1087.88 220.237 1097.43 222.462 1106.96 224.787C1055.76 213.263 1004.2 203.516 952.379 195.752Z" fill="#1A7EC3"/>
<path d="M452.465 637.908C452.465 637.908 446.652 621.173 428.91 622.664C411.168 624.154 396.764 636.366 396.764 636.366C396.764 636.366 394.072 619.488 378.972 619.779C361.279 619.974 343.146 635.344 343.146 635.344C343.146 635.344 344.332 604.405 327.301 605.637C310.269 606.869 310.721 628.779 310.721 628.779C310.721 628.779 301.808 605.357 284.65 610.661C264.995 616.781 281.584 637.738 281.584 637.738C281.584 637.738 258.471 619.679 238.604 627.297C218.736 634.915 240.283 653.876 240.283 653.876C240.283 653.876 222.304 647.827 213.59 650.954C204.877 654.082 210.049 666.456 210.049 666.456C210.049 666.456 184.768 664.677 171.923 670.637C159.078 676.596 158.779 679.026 158.779 679.026C256.023 661.452 354.053 647.855 452.465 637.908Z" fill="#C5E8FF"/>
<path opacity="0.36" d="M441.697 639.037C441.697 639.037 415.848 640.64 410.604 639.898C405.542 639.137 403.785 638.214 403.785 638.214C403.785 638.214 383.562 644.208 374.85 643.83C366.321 643.432 359.887 638.387 359.887 638.387C359.887 638.387 353.92 643.072 347.628 644.654C341.355 646.418 338.254 643.238 338.254 643.238C338.254 643.238 316.58 651.23 305.582 650.168C294.585 649.107 293.78 644.947 293.78 644.947C293.78 644.947 283.672 650.62 270.837 654.917C258.003 659.215 251.828 654.88 251.828 654.88C251.828 654.88 234.919 662.557 224.582 666.04C214.428 669.503 211.047 668.935 211.047 668.935C193.477 672.068 176.128 675.547 158.76 678.844C252.593 662.181 346.954 648.784 441.697 639.037Z" fill="#1A7EC3"/>
<path d="M35 158.77C148.6 115.87 264.6 82.3696 382.2 58.1696C382.2 58.1696 376.2 48.2696 359.7 53.5696C343.2 58.8696 328.8 65.9696 328.8 65.9696C328.6 65.9696 352.2 15.0696 324.2 11.6696C295.9 8.36964 295.8 42.4696 295.8 42.3696C295.7 42.4696 301.7 -6.23036 266.7 0.669638C235.7 7.06964 249.3 47.7696 249.3 47.6696C249.4 47.6696 222.5 17.6696 191.8 33.3696C161.3 49.1696 185.7 75.7696 185.6 75.6696C185.7 75.6696 160 65.6696 135.2 82.7696C110.5 99.9696 111.5 116.17 111.4 116.07C111.4 116.07 98.4 95.0696 79.7 102.57C61 110.07 73.5 134.67 73.5 134.67C73.5 134.67 62.4 129.37 49.4 135.27C36.3 141.47 35 158.77 35 158.77Z" fill="#C5E8FF"/>
<path opacity="0.36" d="M35 158.77C35 158.67 66.6 146.17 76.1 140.87C85.6 135.47 88.3 132.17 88.3 132.17C88.3 132.17 100.4 130.07 113.4 127.17C126.4 124.27 132.5 117.27 132.5 117.27C132.5 117.27 159.5 115.47 179.9 105.97C200.2 96.4696 197.1 87.3696 197.1 87.2696C197.1 87.2696 208.8 90.8696 225.4 89.1696C242 87.4696 255.2 73.1696 255.2 73.1696C255.2 73.1696 273.6 80.5696 285.4 77.4696C297.2 74.3696 297.9 66.6696 297.9 66.6696C297.9 66.6696 307.7 69.2696 319.2 69.2696C330.7 69.1696 361.3 62.4696 361.3 62.4696C250.9 86.3696 141.8 118.37 35 158.77Z" fill="#1A7EC3"/>
<path d="M1627.8 212C1474.1 153.9 1315.7 113.1 1155.4 89.5C1155.4 89.5 1162.8 75.5 1185.4 81.5C1208 87.5 1227.9 96.2 1227.9 96.2C1228.3 96.2 1192.8 28.5 1230.6 22C1268.9 15.8 1271.2 62.1 1271.1 62.1C1271.3 62.2 1260 -3.8 1308.3 3.7C1351.1 10.7 1334.5 66.8 1334.6 66.8C1334.4 66.8 1369.6 24.6 1412.3 44.8C1454.5 65.2 1422.2 102.2 1422.4 102.2C1422.3 102.2 1456.8 87.6 1491.1 110.3C1525.1 133.1 1524 155.2 1524.1 155.2C1524.1 155.2 1541.3 126.4 1566.9 136.3C1592.4 146.3 1575.6 179.9 1575.6 179.9C1575.6 179.9 1590.6 172.5 1608.3 180.6C1626 188.4 1627.8 212 1627.8 212Z" fill="#C5E8FF"/>
<path opacity="0.36" d="M1627.8 212C1627.8 211.9 1585 195 1572.1 188C1559.2 180.8 1555.5 176.3 1555.5 176.3C1555.5 176.3 1539.1 173.7 1521.4 169.9C1503.7 166.2 1495.3 156.9 1495.3 156.9C1495.3 156.9 1458.7 155.1 1430.9 142.9C1403.1 130.7 1407 118.2 1407.1 118.1C1407.1 118.1 1391.4 123.4 1368.8 121.9C1346.3 120.3 1327.8 101.6 1327.8 101.6C1327.8 101.6 1303.2 112.7 1287.2 109.2C1271.1 105.7 1269.7 95.2 1269.7 95.2C1269.7 95.2 1256.7 99.3 1241.1 100.1C1225.5 100.7 1183.9 93.8 1183.8 93.9C1334.4 118 1483.2 157.3 1627.8 212Z" fill="#1A7EC3"/>
<path d="M659.648 79.1327C727.961 71.7601 796.472 68.4826 864.951 69.2106C864.951 69.2106 854.516 65.5738 847.058 65.4563C839.599 65.3389 835.508 65.4594 835.508 65.4594C835.433 65.3773 863.289 49.5679 853.255 40.7643C843.069 31.875 821.367 50.4901 821.441 50.5722C821.441 50.5722 828.252 27.8735 810.034 24.3395C791.733 20.8802 787.206 50.1298 787.284 50.1335C787.362 50.1372 765.184 22.3731 748.018 28.1603C731.012 33.8764 738.457 52.5358 738.46 52.4575C738.542 52.3828 709.392 42.4384 697.183 49.7174C685.053 57.0001 687.96 68.609 687.96 68.609C687.964 68.5306 661.833 67.8434 659.648 79.1327Z" fill="#C5E8FF"/>
<path opacity="0.36" d="M659.648 79.1327C659.652 79.0543 688.1 75.6084 692.02 74.144C695.943 72.6012 696.73 69.2599 696.73 69.2599C696.73 69.2599 710.255 72.336 723.922 72.4331C737.588 72.5302 741.597 69.1843 741.601 69.1059C741.601 69.1059 752.479 70.0138 766.414 67.7665C780.348 65.5192 783.05 59.9114 783.05 59.9114C783.05 59.9114 792.04 64.1871 801.298 64.4683C810.552 64.8279 815.494 61.6833 815.494 61.6833C815.494 61.6833 824.077 66.2539 834.542 67.6137C845.006 68.9734 851.523 69.0463 851.523 69.0463C787.494 68.9218 723.459 72.2541 659.648 79.1327Z" fill="#1A7EC3"/>
<path d="M-44.6073 434.893C0.187676 406.202 46.5342 380.28 94.241 357.145C94.241 357.145 85.7543 358.226 80.5449 360.72C75.3356 363.213 72.5419 364.709 72.5419 364.709C72.4618 364.678 86.3079 344.106 76.316 341.469C66.1884 338.825 57.5747 359.217 57.6548 359.248C57.6548 359.248 54.5386 341.167 40.6936 345.007C26.8175 348.927 33.777 370.76 33.8326 370.736C33.8882 370.711 8.9346 359.127 -0.964009 369.063C-10.7759 378.895 0.824821 389.256 0.80033 389.2C0.831447 389.12 -22.8023 392.292 -28.7502 401.551C-34.6424 410.785 -28.62 417.826 -28.62 417.826C-28.6445 417.771 -46.9907 426.315 -44.6073 434.893Z" fill="#C5E8FF"/>
<path opacity="0.36" d="M-44.6073 434.893C-44.6318 434.837 -26.1067 422.629 -23.8962 420.261C-21.7101 417.837 -22.3184 415.25 -22.3184 415.25C-22.3184 415.25 -11.8833 412.713 -2.3789 408.062C7.12552 403.412 8.74826 399.709 8.72377 399.654C8.72377 399.654 16.5758 396.528 25.4567 390.16C34.3376 383.792 34.2737 378.973 34.2737 378.973C34.2737 378.973 41.9799 378.833 48.4927 375.832C55.03 372.886 57.369 369.001 57.369 369.001C57.369 369.001 64.8951 369.206 72.6161 366.536C80.337 363.866 84.879 361.666 84.879 361.666C40.4643 383.683 -2.76152 408.098 -44.6073 434.893Z" fill="#1A7EC3"/>
<path d="M1309.36 555.368C1309.36 555.368 1311.05 549.903 1325.67 550.913C1336.44 551.707 1339.81 556.015 1339.81 556.015C1339.81 556.015 1339.23 540.236 1351.05 540.948C1364.76 541.866 1356.8 559.278 1356.8 559.278C1356.8 559.278 1364.08 542.64 1369.11 544.443C1374.15 546.247 1373.5 560.124 1373.5 560.124C1373.5 560.124 1384.16 536.85 1400.77 549.443C1409.55 556.149 1396.87 567.526 1396.96 567.547C1396.96 567.547 1403.57 567.747 1409.06 569.342C1414.52 571.035 1416.48 576.674 1416.48 576.674C1416.48 576.674 1422.62 575.239 1429.13 576.34C1435.67 577.343 1436.46 584.573 1436.46 584.573C1394.36 573.43 1351.95 563.753 1309.36 555.368Z" fill="#C5E8FF"/>
<path opacity="0.36" d="M1309.36 555.368C1309.36 555.368 1327.38 558.137 1331.19 558.039C1334.99 557.941 1335.5 557.027 1335.5 557.027C1335.5 557.027 1344.2 561.261 1349.17 561.926C1354.12 562.689 1355.51 561.965 1355.51 561.965C1355.51 561.965 1358.96 564.45 1362.01 565.007C1365.06 565.564 1367.59 563.347 1367.59 563.347C1367.59 563.347 1377.06 568.26 1385.16 570.111C1393.25 571.962 1394.27 571.467 1394.27 571.467C1408.41 575.648 1422.43 579.904 1436.5 584.378C1394.36 573.43 1351.95 563.753 1309.36 555.368Z" fill="#1A7EC3"/>
</svg>
