<svg xmlns="http://www.w3.org/2000/svg" viewBox="0 0 623.8 352.8"><path fill="#FFF" d="M619.8 172.7c-10.5-27.3-38.5-46.9-67.5-32.9C553.7 81.1 504.1 28 440 32.4c-31.5 2.2-60.1 10.2-82 28C338.6 19.2 298.1-2.3 252.4.2c-40.1 2.1-74.4 20.9-92.1 56-8.7-18.3-26.6-24.6-47-23.5-25.2 1.3-58 28.7-49.8 72.6-39.4 17.5-66 60.1-63.4 108.4 3.3 61.4 52.6 108.7 110 105.6 23-1.2 43.8-10.3 60.2-24.7 22.9 32.3 120 97.3 247.4 26.6 18.6 12.2 40.8 18.8 64.2 17.5 49-2.6 88.8-38.7 101.1-86.4 31.6-10.1 49.3-47.2 36.8-79.6z"/></svg>