<svg xmlns="http://www.w3.org/2000/svg" width="340.7" height="87.9" viewBox="0 0 340.7 87.9"><path d="M105.6 45.8c0-11.6 8.4-19.9 20.1-19.9 7.8 0 12.5 3.4 15 6.8l-6.5 6.1c-1.8-2.7-4.6-4.1-8-4.1-6 0-10.3 4.4-10.3 11s4.2 11.1 10.3 11.1c3.5 0 6.2-1.6 8-4.1l6.5 6c-2.5 3.5-7.2 6.9-15 6.9-11.7.2-20.1-8.1-20.1-19.8m39.7 19V26.9h10v5.2c2.7-3.4 7.4-6.1 12.1-6.1v9.7c-.7-.2-1.6-.2-2.7-.2-3.3 0-7.7 1.9-9.3 4.3v25h-10.1zm24.1-19c0-11 8.1-19.9 19.6-19.9 11.3 0 19 8.5 19 20.9V49h-28.2c.6 4.8 4.5 8.8 10.9 8.8 3.2 0 7.7-1.4 10.1-3.8l4.4 6.4c-3.8 3.5-9.7 5.3-15.6 5.3-11.5.1-20.2-7.7-20.2-19.9M189 33.9c-6.2 0-8.9 4.6-9.3 8.4h18.7c-.3-3.6-2.8-8.4-9.4-8.4m22.7 11.9c0-10.8 7.5-19.9 20-19.9 12.6 0 20.1 9.1 20.1 19.9 0 10.8-7.5 19.9-20.1 19.9-12.5.1-20-9-20-19.9m29.7 0c0-5.9-3.5-11-9.7-11s-9.7 5.1-9.7 11c0 6 3.5 11.1 9.7 11.1 6.2 0 9.7-5.1 9.7-11.1m41.9 19V41.9c0-5.3-2.7-7.1-7-7.1-3.9 0-7 2.2-8.6 4.5v25.5h-10V26.9h10v4.9c2.4-2.9 7.1-5.9 13.3-5.9 8.3 0 12.3 4.7 12.3 12.1v26.8h-10zm17.1-47.9c0-3.3 2.7-5.9 6-5.9s6 2.6 6 5.9-2.7 6-6 6c-3.3-.1-6-2.7-6-6m1 10h10v37.9h-10V26.9zm20.2 28.5V35.6h-6.3v-8.7h6.3V16.6h10V27h7.7v8.7h-7.7v17.1c0 2.4 1.3 4.2 3.5 4.2 1.5 0 2.9-.5 3.5-1.1l2.1 7.5c-1.5 1.3-4.2 2.4-8.3 2.4-7 0-10.8-3.7-10.8-10.4"/><path fill="#206ef8" d="M79.7 0H22.6L0 26.9l51.2 61 51.2-61L79.7 0zM13 26.9l14.3-17h47.8l14.2 17-38.1 45.5L13 26.9z"/><path d="M67.6 37.3L76.3 27l-5.9-7.1H31.9L26 27l25.2 30 12.7-15.2-9.7-3.9-3 3.6-9.7-11.6H61l-3 3.6"/></svg>