<svg width="275" height="190" viewBox="0 0 275 190" fill="none" xmlns="http://www.w3.org/2000/svg">
<path d="M76.5817 56.8912C88.8211 38.6435 112.522 23.7196 132.029 20.3363C151.951 16.8809 171.215 24.8186 183.144 39.4466C186.759 36.523 191.223 34.4277 196.233 33.5588C208.727 31.3917 220.593 37.5489 225.315 47.8063C242.738 45.1726 259.154 56.9412 262.181 74.3894C265.248 92.0746 253.398 108.898 235.713 111.965C230.906 112.799 226.164 112.531 221.744 111.343C220.193 122.759 210.799 132.525 198.05 134.737C196.027 135.088 194.019 135.231 192.051 135.183C187.978 150.561 174.52 163.176 156.828 166.245C142.018 168.813 127.75 164.084 118.206 154.786C115.649 155.82 112.929 156.605 110.078 157.099C98.8281 159.051 87.9816 156.062 80.2042 149.814C78.8465 150.239 77.4451 150.58 76.0051 150.83C62.4581 153.18 49.4169 146.776 42.6768 135.702C27.4411 135.386 14.0662 124.336 11.3643 108.758C8.29696 91.0724 20.147 74.2491 37.8323 71.1817C39.2626 70.9336 40.6874 70.7829 42.0997 70.7252C46.8611 63.4783 54.4937 58.1426 63.7114 56.5438C68.1218 55.7789 72.4785 55.9415 76.5817 56.8912Z" fill="#EBF7FF"/>
</svg>
